<?xml version="1.0" standalone="no"?>
<!DOCTYPE svg PUBLIC "-//W3C//DTD SVG 20010904//EN"
 "http://www.w3.org/TR/2001/REC-SVG-20010904/DTD/svg10.dtd">
<svg version="1.0" xmlns="http://www.w3.org/2000/svg"
 width="800.000000pt" height="800.000000pt" viewBox="0 0 800.000000 800.000000"
 preserveAspectRatio="xMidYMid meet">

<g transform="translate(0.000000,800.000000) scale(0.100000,-0.100000)"
fill="#000000" stroke="none">
<path d="M845 7988 c-4 -11 -35 -213 -50 -323 -2 -16 -13 -89 -24 -162 -12
-72 -18 -138 -15 -146 3 -8 1 -18 -5 -22 -6 -3 -11 -23 -11 -44 0 -21 -5 -63
-11 -92 -6 -30 -12 -67 -14 -84 -2 -16 -11 -75 -20 -130 -19 -115 -20 -122
-41 -310 -8 -77 -20 -151 -27 -164 -9 -19 -9 -25 1 -28 6 -3 12 -9 12 -14 0
-6 -4 -8 -9 -5 -11 7 -25 -49 -16 -63 3 -6 -1 -21 -10 -34 -8 -13 -18 -55 -21
-93 -6 -73 -30 -159 -51 -185 -7 -8 -13 -29 -13 -45 0 -17 -4 -34 -9 -40 -21
-21 -43 -145 -47 -259 -11 -367 -17 -469 -30 -555 -8 -52 -14 -125 -14 -162 0
-38 -4 -68 -8 -68 -4 0 -13 -71 -20 -157 -7 -87 -19 -196 -27 -243 -8 -47 -16
-116 -20 -154 -3 -37 -7 -72 -10 -76 -3 -5 -12 -64 -20 -132 -8 -67 -22 -157
-30 -198 -25 -132 -45 -257 -45 -290 0 -22 -4 -29 -12 -24 -10 6 -10 5 -1 -7
10 -13 8 -44 -12 -158 -14 -78 -25 -164 -25 -190 0 -27 -4 -51 -9 -53 -13 -4
-41 -168 -42 -248 -2 -61 -2 -62 -10 -25 -7 34 -7 30 -4 -20 3 -53 2 -58 -10
-41 -13 17 -14 16 -9 -16 5 -30 -4 -63 -34 -120 -2 -5 3 -8 12 -8 13 0 14 -5
6 -26 -6 -14 -10 -50 -10 -81 0 -31 -4 -94 -10 -142 -18 -159 -32 -266 -42
-326 -20 -117 -21 -170 -25 -1192 l-3 -1033 308 0 309 0 46 35 c25 19 50 35
56 35 13 0 90 83 116 124 18 29 28 42 61 79 6 7 31 29 55 48 88 70 115 104
134 171 9 35 22 69 28 77 13 16 91 51 113 51 9 0 40 11 70 25 30 14 59 25 64
25 6 0 18 4 28 10 82 45 322 140 355 140 5 0 36 11 70 24 34 13 87 31 117 40
163 46 238 71 234 78 -3 4 5 8 17 8 44 0 301 110 339 145 21 20 109 65 127 65
2 0 3 -35 1 -77 -11 -202 27 -1061 48 -1094 3 -5 61 -9 130 -9 l124 0 0 30 c0
17 5 30 11 30 7 0 8 -11 4 -31 l-7 -31 48 4 c27 1 52 8 56 13 4 6 8 29 8 53 0
50 15 56 26 9 6 -27 8 -29 14 -13 6 17 8 16 18 -12 7 -22 17 -32 31 -32 11 0
23 -4 26 -10 4 -6 58 -10 131 -10 104 0 124 2 124 15 0 8 4 15 8 15 16 0 74
59 68 68 -3 5 1 33 10 63 14 47 18 68 23 133 0 12 4 16 10 10 10 -11 44 -119
44 -140 0 -18 9 -18 54 1 20 9 44 13 54 10 13 -5 22 3 34 32 9 21 21 45 26 53
5 8 19 34 30 58 19 41 20 45 4 69 -21 31 -13 69 17 77 17 4 20 8 10 15 -11 7
-11 9 0 14 12 4 14 28 12 116 -1 61 -6 112 -10 113 -10 1 -34 31 -29 36 1 2
47 -20 102 -47 110 -55 315 -118 298 -91 -3 5 -15 10 -26 10 -11 0 -19 7 -20
18 -1 9 -2 24 -3 32 0 8 -11 16 -24 18 -17 3 -22 8 -18 19 9 23 -4 83 -18 83
-14 0 -32 47 -41 110 -7 46 -33 100 -47 100 -4 0 -8 6 -8 14 0 7 -6 19 -14 25
-8 7 -17 24 -21 39 -4 15 -24 53 -46 86 -21 32 -39 64 -39 72 0 8 -9 19 -20
26 -11 7 -20 18 -20 25 0 7 -4 13 -10 13 -5 0 -19 18 -30 39 -12 24 -43 56
-77 81 -51 37 -63 41 -98 36 -22 -2 -41 -10 -43 -15 -2 -6 -10 -11 -18 -11 -8
0 -14 -4 -14 -8 0 -16 -35 -49 -47 -45 -8 3 -13 -6 -14 -24 0 -15 -2 -23 -4
-18 -1 6 -8 30 -15 55 -7 25 -21 67 -33 93 -17 39 -19 52 -9 67 6 11 9 27 6
37 -5 15 -4 15 5 3 9 -13 10 -13 14 0 16 55 32 216 32 328 0 72 2 132 5 132 9
0 104 -70 112 -83 19 -30 5 -28 -28 4 l-36 34 15 -30 c8 -17 26 -36 39 -42 65
-31 114 -48 127 -45 28 7 81 -9 81 -23 0 -13 23 -15 50 -5 3 1 13 2 22 1 10
-1 33 2 53 8 24 6 46 6 66 -1 23 -8 35 -7 54 6 30 20 35 20 35 1 0 -12 4 -11
20 5 19 19 40 18 66 -2 7 -5 18 -7 25 -6 8 2 15 -7 17 -20 3 -18 6 -21 17 -12
8 7 24 9 37 4 22 -7 22 -7 3 -14 -18 -7 -16 -10 15 -23 30 -13 35 -13 38 -1 3
12 8 12 32 -1 16 -8 43 -15 60 -15 16 0 30 -4 30 -10 0 -5 -4 -10 -10 -10 -38
0 34 -42 95 -56 17 -4 36 -16 43 -26 7 -10 19 -18 26 -18 8 0 13 -7 12 -16 -1
-15 60 -44 97 -44 12 0 17 -8 17 -28 0 -25 6 -29 53 -44 28 -8 51 -21 49 -27
-4 -18 25 -24 56 -13 70 25 112 34 129 27 32 -14 76 -16 86 -3 6 9 7 8 3 -4
-6 -22 13 -35 25 -17 4 7 11 10 16 6 4 -4 2 -17 -5 -27 -22 -36 -15 -49 31
-52 36 -3 42 -6 40 -24 -2 -17 3 -22 22 -20 22 1 37 16 17 16 -4 0 -8 17 -7
37 0 34 -3 39 -32 48 -48 16 -53 28 -8 21 34 -6 42 -4 53 14 11 18 10 20 -13
20 -14 0 -25 5 -25 11 0 7 12 10 30 7 20 -3 30 0 30 9 0 7 -9 13 -19 13 -10 0
-22 7 -25 16 -9 24 -7 36 5 28 6 -3 15 0 20 7 13 21 11 39 -5 33 -10 -4 -12 4
-9 34 3 30 0 41 -13 46 -12 5 -14 9 -5 20 9 11 8 15 -5 20 -12 4 -14 14 -10
38 3 18 3 27 0 21 -8 -18 -24 -16 -24 2 0 8 5 15 10 15 6 0 10 7 10 15 0 8 -4
15 -9 15 -5 0 -12 8 -15 17 -7 16 35 63 56 63 4 0 8 10 8 23 0 12 6 40 14 61
12 36 12 44 -5 84 -29 68 -19 67 37 -3 13 -17 15 -17 10 -2 -5 14 -1 16 22 11
20 -4 23 -3 12 5 -12 8 -11 11 5 17 11 4 32 20 48 36 15 15 34 28 42 28 21 0
19 50 -2 66 -10 7 -30 14 -45 14 -26 0 -28 3 -28 40 0 28 -4 40 -14 40 -12 0
-12 7 -1 43 10 32 17 41 31 39 16 -3 16 -2 4 14 -13 15 -13 18 4 28 10 6 29
21 42 34 l24 23 0 -25 c0 -23 4 -25 33 -23 30 2 32 5 29 36 -1 18 5 42 14 54
16 21 16 20 11 -22 -5 -37 -2 -47 16 -61 18 -15 22 -33 28 -104 4 -47 11 -92
16 -99 5 -6 17 -38 27 -69 11 -32 27 -65 38 -74 10 -10 18 -20 18 -25 0 -4 16
-30 35 -59 46 -68 58 -119 52 -210 -5 -75 -50 -220 -68 -220 -5 0 -9 -5 -9
-12 0 -19 -119 -169 -174 -218 -28 -25 -67 -62 -88 -82 -21 -21 -41 -38 -44
-38 -3 0 -12 -7 -21 -15 -8 -9 -23 -13 -32 -10 -29 9 -106 -90 -82 -105 10 -5
10 -9 2 -15 -7 -4 -18 -1 -26 5 -12 10 -15 9 -15 -6 0 -11 10 -24 22 -29 14
-6 25 -22 28 -40 5 -29 6 -29 18 -10 12 17 12 15 7 -20 -4 -22 -11 -41 -16
-43 -14 -5 -11 -62 6 -107 9 -27 14 -83 15 -167 0 -73 4 -129 10 -133 6 -3 10
-16 10 -28 0 -12 9 -28 19 -34 11 -7 22 -25 24 -40 2 -15 3 -9 2 15 -1 23 2
42 7 42 6 0 7 13 3 32 -11 47 -14 301 -4 320 6 10 5 18 -2 20 -8 3 -7 13 4 33
22 43 57 77 72 71 7 -2 16 2 19 9 4 11 14 13 38 8 18 -3 35 -10 36 -15 2 -4
14 -8 28 -8 37 0 111 -40 123 -67 6 -13 12 -38 12 -56 l1 -32 8 30 c7 28 8 29
9 4 0 -14 -4 -30 -10 -36 -6 -6 -10 -31 -8 -56 2 -25 1 -43 -3 -41 -4 3 -14
-21 -23 -53 -30 -111 -54 -182 -65 -193 -3 -3 -10 -14 -16 -25 -6 -11 -21 -21
-33 -23 -11 -2 -21 -10 -21 -18 0 -10 -12 -14 -40 -14 -36 0 -40 -2 -40 -25 0
-14 -4 -25 -10 -25 -5 0 -10 8 -10 18 0 22 -52 72 -57 55 -8 -22 -33 -14 -33
10 0 12 -5 29 -11 37 -8 11 -9 7 -5 -19 3 -18 6 -42 6 -53 0 -18 2 -19 17 -7
15 13 16 8 10 -71 -4 -47 -3 -79 2 -72 7 12 14 -32 26 -177 2 -24 16 -68 30
-97 l26 -54 440 0 439 0 -14 23 c-43 65 -80 226 -103 440 -13 117 -19 152 -24
127 -3 -19 -7 -29 -8 -22 0 7 -6 10 -11 7 -6 -4 -10 7 -10 27 0 25 -3 29 -10
18 -8 -12 -10 -12 -11 5 -1 16 -2 15 -8 -5 -23 -76 -23 330 -1 489 27 199 110
361 184 361 10 0 34 -10 53 -21 42 -26 50 -20 29 25 -10 22 -16 61 -16 113 0
198 -63 356 -198 501 -27 28 -45 52 -41 52 4 0 22 -16 41 -35 18 -20 38 -33
45 -31 7 3 10 -1 6 -10 -5 -14 12 -20 20 -6 2 4 2 1 1 -6 -2 -7 13 -35 32 -63
33 -46 37 -48 50 -32 12 17 13 16 14 -10 0 -16 -4 -26 -10 -22 -16 10 -12 -12
5 -29 8 -8 15 -22 15 -30 0 -9 5 -16 10 -16 6 0 10 7 10 16 0 8 4 13 10 9 5
-3 7 -12 3 -20 -3 -8 -1 -15 5 -15 6 0 13 6 15 13 4 9 6 9 6 0 1 -8 14 -13 31
-13 17 0 30 -4 30 -10 0 -5 -8 -10 -17 -10 -15 0 -15 -2 -4 -9 9 -6 22 -6 32
0 15 8 18 4 21 -23 2 -23 9 -34 22 -36 12 -3 16 0 11 8 -4 6 0 17 8 23 8 7 20
37 25 67 6 30 17 77 24 104 l14 50 11 -30 c7 -16 15 -75 18 -131 14 -206 34
-84 35 212 1 94 1 229 2 300 1 72 0 191 -1 266 -1 77 3 147 9 164 6 15 9 29 8
30 -2 1 -17 10 -35 19 -37 18 -70 65 -37 51 11 -4 24 -8 31 -8 7 0 10 -4 8 -8
-5 -7 18 -19 35 -19 4 0 3 11 -3 25 -7 14 -15 25 -19 25 -17 0 -6 22 26 55 19
19 36 29 38 23 5 -15 78 125 78 151 0 12 4 21 9 21 4 0 2 22 -5 50 -21 82 -28
144 -15 136 7 -4 11 0 11 13 0 10 3 27 7 37 4 11 3 15 -5 10 -14 -9 -82 24
-82 41 0 7 -6 10 -15 7 -18 -7 -75 14 -75 27 0 17 -18 9 -23 -11 -8 -30 -24
-24 -32 10 -5 21 -13 30 -26 30 -11 0 -22 7 -25 15 -4 8 -11 15 -16 15 -6 0
-6 -6 1 -14 10 -11 6 -17 -21 -30 -24 -12 -34 -14 -37 -5 -2 7 -9 1 -17 -12
-12 -23 -13 -23 -20 -4 -4 11 -10 22 -14 25 -3 3 -12 25 -19 49 -7 24 -21 56
-30 70 -10 14 -26 39 -35 54 -9 15 -21 25 -26 22 -6 -4 -10 1 -10 9 0 8 -9 20
-20 26 -16 9 -20 8 -20 -5 0 -8 4 -15 9 -15 10 0 55 -100 47 -107 -7 -7 -43
54 -58 97 -6 19 -22 43 -35 53 -31 24 -124 143 -143 182 -8 17 -36 65 -62 107
-48 78 -65 125 -28 78 11 -14 47 -70 81 -125 63 -101 105 -155 121 -155 5 0 6
5 2 12 -5 8 0 9 15 5 19 -5 19 -2 -9 29 -38 43 -40 67 -2 32 26 -24 64 -48 77
-48 3 0 -2 11 -11 25 -9 14 -12 25 -6 25 6 0 16 -9 22 -20 6 -11 16 -20 22
-20 7 0 27 -14 45 -32 26 -25 33 -28 33 -14 0 16 1 16 16 2 8 -9 17 -16 19
-16 10 0 -20 57 -42 81 -25 28 -33 70 -10 50 8 -6 17 -8 21 -4 4 4 11 2 15 -5
4 -7 17 -14 29 -15 11 0 18 -5 16 -9 -3 -4 4 -20 14 -35 11 -16 27 -41 36 -56
20 -32 27 -30 32 8 1 16 -4 30 -16 37 -10 6 -16 17 -13 23 2 7 -2 19 -9 26
-57 61 -80 121 -55 146 11 11 8 23 -6 23 -7 0 -22 7 -33 15 -17 13 -14 14 36
13 30 -1 60 -5 65 -8 18 -13 75 -20 75 -10 0 6 7 10 15 10 8 0 15 -4 15 -10 0
-5 5 -10 11 -10 7 0 9 12 5 33 -7 38 1 52 21 36 10 -9 13 -7 13 11 0 15 -5 20
-14 17 -8 -3 -17 1 -20 10 -4 11 -2 14 9 9 18 -7 19 18 5 95 -14 72 -20 219
-10 219 5 0 14 -25 20 -55 6 -30 13 -55 16 -55 8 0 -4 132 -16 188 -14 61 -23
68 -19 15 1 -21 1 -49 0 -63 -2 -24 -3 -24 -11 -4 -4 11 -11 51 -15 87 -4 37
-11 70 -16 73 -15 9 -10 24 6 18 8 -4 15 -17 15 -30 0 -13 3 -24 8 -24 4 0 6
19 4 41 -3 28 -7 37 -13 28 -6 -9 -9 0 -9 27 0 22 -7 64 -16 93 -12 42 -13 56
-3 67 10 12 10 14 0 12 -7 -2 -28 26 -47 61 -19 35 -38 69 -43 75 -4 6 -13 25
-20 41 -10 27 -11 25 -7 -22 5 -57 1 -67 -14 -30 -8 19 -9 18 -9 -13 l-1 -35
-20 30 c-21 31 -26 50 -11 41 4 -3 6 6 3 21 -4 19 -2 24 8 18 8 -5 11 -2 8 11
-2 10 -15 25 -30 32 -20 9 -29 23 -33 50 -8 48 -36 102 -52 102 -8 0 -19 12
-26 28 -14 31 -22 43 -57 80 -26 28 -54 67 -77 112 -13 25 -13 25 -13 3 0 -35
-17 -27 -24 10 -7 36 -35 84 -34 57 2 -36 -4 -48 -27 -52 -15 -3 -30 1 -38 11
-14 15 -36 75 -41 109 -3 21 -26 29 -26 9 0 -9 4 -17 10 -19 5 -1 12 -23 16
-48 8 -56 -6 -45 -23 18 -22 80 -23 86 -24 128 -1 32 -5 41 -18 40 -16 -1 -17
0 -13 87 2 31 5 38 12 27 8 -12 10 -11 10 7 0 12 4 25 10 28 6 3 10 14 10 23
-1 16 -1 16 -13 0 -11 -14 -13 -10 -14 31 0 26 -6 57 -12 69 -6 12 -14 72 -16
134 -4 75 -2 106 4 93 5 -11 10 -50 10 -87 1 -74 18 -163 37 -191 11 -17 13
-14 19 22 6 39 38 91 55 91 5 0 16 -7 25 -16 10 -10 26 -14 41 -11 23 4 25 2
19 -20 -7 -31 -14 -84 -8 -63 3 8 9 19 14 24 5 6 9 21 9 35 0 21 2 23 10 11 7
-11 9 -8 9 15 0 17 3 56 7 88 3 32 3 57 -2 56 -22 -4 -32 3 -39 24 -3 12 -8
17 -11 11 -7 -17 15 -66 26 -59 5 3 10 2 10 -3 0 -10 -49 -46 -55 -40 -1 2 -7
34 -12 72 -11 76 -1 130 30 160 9 10 17 24 17 32 0 8 5 14 10 14 6 0 10 7 10
15 0 8 7 15 16 15 13 0 15 -8 12 -36 -4 -36 -4 -37 13 -15 l18 22 7 -25 c3
-13 12 -27 20 -30 8 -3 14 -15 14 -26 0 -11 6 -23 14 -26 8 -3 17 -26 21 -52
4 -26 13 -62 20 -80 21 -48 31 -152 15 -152 -6 0 -14 9 -17 20 -3 11 -9 18
-13 15 -10 -6 -31 51 -23 59 4 3 1 6 -5 6 -7 0 -12 8 -12 19 0 10 -7 24 -15
31 -12 10 -14 2 -11 -62 2 -40 13 -111 25 -157 11 -46 21 -92 21 -103 0 -11 4
-16 10 -13 6 3 10 -3 10 -14 0 -12 -5 -21 -10 -21 -7 0 -7 -7 1 -21 7 -14 7
-25 1 -31 -6 -6 -15 11 -25 49 -14 54 -15 55 -16 21 -1 -37 16 -88 29 -88 4 0
10 -24 12 -54 4 -52 17 -75 75 -140 9 -11 29 -43 45 -70 28 -51 28 -51 28 -18
0 17 -4 32 -10 32 -5 0 -10 5 -10 12 0 7 -11 28 -25 48 -23 33 -42 101 -59
215 l-6 40 23 -28 c13 -15 26 -24 30 -21 10 11 9 46 -2 40 -9 -6 -22 40 -13
49 3 3 11 0 19 -7 12 -9 13 -7 9 13 -35 167 -41 213 -27 205 7 -5 11 3 11 22
0 39 -20 145 -30 157 -4 6 -7 36 -5 69 2 44 -3 72 -21 111 -22 52 -76 105
-105 105 -19 1 -40 19 -68 58 -12 18 -26 30 -31 27 -5 -3 -11 4 -15 14 -3 11
-12 18 -19 15 -7 -3 -17 1 -23 8 -17 21 -33 78 -26 94 5 13 8 13 24 -2 26 -24
25 1 -1 41 -11 17 -20 47 -20 69 0 23 -7 47 -17 59 -17 19 -17 19 7 12 14 -4
28 -13 32 -19 4 -6 22 -11 40 -11 27 0 35 -6 50 -35 9 -19 17 -29 18 -22 0 6
3 12 8 12 8 0 32 -49 32 -67 0 -7 6 -13 14 -13 8 0 29 -20 47 -45 17 -24 36
-42 42 -38 6 3 7 1 3 -5 -4 -6 1 -20 11 -31 14 -16 20 -18 32 -8 12 10 14 8 9
-10 -4 -13 0 -27 8 -34 8 -6 14 -20 14 -30 0 -10 9 -24 19 -31 11 -7 17 -18
13 -27 -4 -12 -7 -11 -13 5 -6 14 -8 10 -8 -18 -1 -20 -4 -43 -7 -52 -3 -9 -1
-16 6 -16 6 0 8 5 5 10 -3 6 -1 10 4 10 6 0 11 -11 11 -24 0 -49 17 -34 20 17
3 83 4 87 11 87 9 0 19 -53 19 -97 0 -19 3 -33 8 -31 4 2 24 10 45 18 20 8 37
18 37 22 0 4 9 8 20 8 27 0 25 -11 -9 -44 -25 -24 -35 -27 -65 -22 -31 6 -36
4 -36 -12 0 -20 25 -32 67 -32 16 0 24 -8 29 -27 10 -41 43 -83 65 -83 17 0
19 7 19 69 0 96 10 160 24 155 7 -3 12 -21 12 -40 0 -19 6 -39 13 -44 10 -6
11 -15 4 -36 l-10 -29 -11 35 -10 35 -1 -42 c-1 -24 4 -43 9 -43 7 0 8 -13 4
-34 -8 -46 4 -66 24 -40 13 17 14 15 9 -23 -3 -24 -1 -46 4 -49 5 -3 9 -14 9
-25 0 -10 5 -19 10 -19 11 0 13 12 15 85 0 28 4 210 8 405 4 195 12 474 17
620 5 146 12 376 15 513 l6 247 -2941 0 c-2343 0 -2942 -3 -2945 -12z m2675
-58 c0 -5 18 -10 40 -10 29 0 40 -4 40 -15 0 -11 -11 -15 -40 -15 -36 0 -40
-2 -40 -25 0 -16 -6 -25 -15 -25 -11 0 -15 11 -15 43 0 24 3 47 7 50 10 10 23
8 23 -3z m319 -168 c0 -38 5 -81 11 -96 14 -37 13 -66 -3 -66 -20 0 -39 101
-31 174 9 84 23 76 23 -12z m281 39 c0 -22 5 -41 12 -43 13 -5 4 -38 -10 -38
-11 0 -22 48 -22 91 0 16 5 29 10 29 6 0 10 -18 10 -39z m-550 -81 c0 -22 -4
-40 -10 -40 -5 0 -10 18 -10 40 0 22 5 40 10 40 6 0 10 -18 10 -40z m-50 0 c0
-22 -25 -27 -50 -10 -13 9 -13 11 0 20 25 17 50 12 50 -10z m800 -61 c0 -33
-4 -58 -9 -55 -5 3 -11 -17 -13 -44 -1 -28 0 -51 4 -53 14 -5 -5 -57 -21 -57
-11 0 -12 -3 -4 -8 21 -13 -3 -81 -27 -79 -11 1 -20 5 -20 10 0 5 -9 -1 -20
-14 l-19 -24 -1 60 c0 56 24 143 44 162 5 4 6 -13 3 -39 -5 -39 -4 -46 9 -41
9 3 12 12 9 24 -4 13 -1 19 9 19 12 0 14 7 10 28 -3 15 2 57 11 92 26 102 35
107 35 19z m240 -3 c0 -15 -37 -32 -47 -22 -3 3 -3 12 0 21 8 19 47 20 47 1z
m-462 -69 c2 -34 4 -77 4 -95 -1 -28 2 -31 14 -22 7 7 11 17 7 24 -4 7 -1 7 7
-1 11 -10 16 -9 25 4 8 11 14 13 19 5 4 -7 2 -12 -4 -12 -6 0 -8 -14 -4 -39 5
-34 4 -39 -17 -44 -13 -4 -33 -7 -45 -7 -12 0 -26 -10 -32 -22 -10 -19 -11
-16 -6 23 6 48 -10 76 -27 48 -6 -11 -11 -10 -27 4 -10 9 -23 17 -29 17 -11 0
-26 41 -18 49 3 2 13 -5 23 -17 18 -20 20 -21 53 -4 34 17 34 18 37 91 3 87
15 86 20 -2z m159 21 c-3 -8 -6 -5 -6 6 -1 11 2 17 5 13 3 -3 4 -12 1 -19z
m300 -4 c-3 -3 -12 -4 -19 -1 -8 3 -5 6 6 6 11 1 17 -2 13 -5z m-1120 -26 c-3
-8 -6 -5 -6 6 -1 11 2 17 5 13 3 -3 4 -12 1 -19z m1121 -41 c3 -43 -6 -46 -31
-11 -15 20 -16 28 -6 40 19 23 33 11 37 -29z m-1068 -25 c0 -13 -28 -47 -34
-42 -10 10 6 50 20 50 8 0 14 -4 14 -8z m110 -13 c0 -11 -4 -17 -10 -14 -5 3
-10 13 -10 21 0 8 5 14 10 14 6 0 10 -9 10 -21z m120 4 c0 -10 -7 -14 -20 -10
-13 3 -20 0 -20 -9 0 -19 -44 -18 -60 1 -19 23 -2 35 50 34 37 -1 50 -5 50
-16z m150 4 c0 -5 6 -4 14 2 21 18 46 2 45 -28 0 -14 -3 -20 -6 -13 -4 10 -8
10 -20 0 -13 -11 -18 -10 -26 4 -9 13 -15 14 -34 5 -28 -12 -47 1 -38 26 7 17
65 21 65 4z m1173 -78 c-21 -34 -45 -65 -53 -67 -12 -4 -13 -2 -4 9 6 8 14 26
17 40 4 14 21 45 39 70 48 65 48 26 1 -52z m484 69 c-3 -8 -6 -5 -6 6 -1 11 2
17 5 13 3 -3 4 -12 1 -19z m51 -10 c7 -7 12 -20 12 -30 0 -19 15 -24 25 -8 8
13 25 13 25 0 0 -6 -17 -29 -37 -53 -53 -58 -65 -84 -65 -129 1 -28 -4 -41
-16 -45 -28 -10 -52 -46 -52 -78 0 -17 -5 -36 -12 -43 -7 -7 -8 -12 -4 -12 5
0 3 -7 -4 -15 -10 -12 -10 -15 4 -15 9 0 16 7 16 15 0 25 23 65 38 65 11 0 13
8 8 33 -3 17 -3 28 2 22 10 -14 42 -18 56 -6 8 7 12 4 13 -10 2 -23 -25 -38
-37 -20 -5 9 -16 -3 -34 -34 -14 -26 -26 -51 -26 -56 0 -17 29 -9 32 9 2 13
13 17 43 17 35 0 40 3 40 23 0 20 19 41 37 42 12 0 -14 -75 -33 -93 -10 -10
-19 -15 -19 -11 0 3 -12 -1 -26 -11 -20 -13 -28 -14 -34 -5 -4 7 -13 -1 -24
-24 -10 -21 -22 -33 -30 -30 -7 3 -19 -2 -26 -10 -8 -11 -21 -14 -39 -10 -38
10 -53 24 -41 39 8 9 6 14 -5 19 -17 6 -20 41 -5 51 6 3 10 0 10 -7 0 -7 9 -3
23 10 17 18 19 24 9 31 -8 5 -13 11 -13 15 3 18 0 26 -9 26 -5 0 -10 -11 -10
-24 0 -14 -5 -28 -11 -31 -7 -5 -8 5 -3 32 6 34 6 37 -9 25 -9 -8 -21 -11 -27
-7 -6 4 -20 -1 -31 -11 -10 -9 -33 -17 -49 -17 -17 0 -30 -5 -30 -10 0 -6 -8
0 -19 11 -24 28 -27 28 -34 -5 -11 -48 -20 -56 -50 -42 -36 16 -60 5 -51 -23
9 -30 8 -30 35 -19 17 6 28 5 37 -5 19 -21 -31 -43 -59 -26 -14 9 -25 10 -40
2 -11 -6 -29 -8 -41 -4 -13 4 -24 1 -29 -7 -6 -10 -9 -5 -10 16 0 28 -1 29
-11 9 -9 -21 -11 -21 -29 -6 -10 9 -19 24 -19 32 0 9 -6 24 -13 34 -12 16 -16
17 -36 5 -12 -8 -24 -24 -27 -36 -5 -19 -8 -20 -20 -8 -17 16 -2 67 18 63 15
-4 23 31 10 44 -13 13 -74 -23 -89 -53 -7 -13 -13 -41 -13 -63 0 -33 -2 -37
-15 -26 -8 7 -15 19 -15 26 0 8 -6 11 -15 8 -19 -8 -19 13 0 50 20 38 11 46
-15 14 -25 -32 -76 -42 -93 -18 -7 10 -23 17 -37 16 -22 -1 -25 3 -23 34 1 19
-3 37 -7 40 -6 3 -5 22 2 43 6 20 9 39 7 41 -3 3 -21 1 -42 -4 -22 -5 -39 -4
-43 1 -3 6 -15 7 -25 4 -18 -6 -20 -3 -14 27 6 32 5 33 -27 35 -18 2 -34 7
-36 13 -2 5 -10 10 -18 10 -18 0 -18 14 0 29 8 7 12 22 10 34 -2 12 -2 17 1
11 3 -7 15 -10 25 -7 19 5 25 -4 21 -34 -1 -7 2 -13 6 -14 60 -6 60 -6 60 31
-1 45 11 90 23 90 6 0 10 -20 10 -45 l0 -44 25 24 c13 14 29 25 35 25 12 0 12
-2 0 -34 -5 -14 -6 -28 -1 -30 12 -8 6 -47 -10 -57 -11 -7 -10 -9 6 -9 12 0
26 5 33 12 9 9 12 8 12 -5 0 -16 2 -16 30 -2 17 9 30 22 30 30 0 8 5 15 10 15
6 0 10 -7 10 -16 0 -14 3 -14 16 -3 13 10 19 10 36 0 24 -15 36 -7 19 13 -32
38 47 77 83 41 8 -8 23 -15 34 -15 11 0 27 -10 36 -22 14 -21 16 -22 26 -5 6
9 20 17 30 17 22 0 17 -27 -9 -47 -14 -10 -12 -13 12 -22 18 -7 27 -18 27 -33
0 -21 5 -23 60 -24 33 -1 60 2 60 7 0 5 -4 9 -10 9 -16 0 -12 27 5 34 8 3 15
1 15 -4 0 -6 -5 -10 -12 -10 -6 0 -9 -2 -6 -5 3 -3 12 -3 21 1 13 5 14 10 6
25 -16 30 8 65 42 61 4 -1 12 12 19 28 9 22 9 37 1 61 -14 40 -14 39 4 39 9 0
21 -11 27 -25 8 -19 14 -22 20 -13 5 9 8 10 8 1 0 -6 -4 -15 -10 -18 -5 -3
-10 -22 -10 -41 0 -40 -16 -77 -30 -69 -5 3 -19 -12 -30 -35 -19 -37 -19 -42
-5 -64 16 -24 6 -44 -14 -31 -5 3 -19 -8 -31 -25 -20 -29 -21 -30 -2 -30 10 0
23 -10 29 -22 8 -19 11 -15 29 36 19 58 42 77 36 29 -3 -16 0 -23 7 -19 6 4
11 15 11 24 1 16 2 16 14 0 16 -22 30 -23 22 -3 -7 18 53 114 71 114 7 1 17 9
22 20 16 29 78 54 117 46 34 -6 34 -6 18 -31 -15 -22 -18 -23 -34 -9 -15 14
-21 13 -58 -7 -23 -13 -42 -29 -42 -36 0 -7 14 -26 31 -43 24 -24 34 -28 45
-18 10 8 18 8 27 1 10 -9 29 12 86 99 l72 110 -20 28 c-25 35 -12 58 17 29z
m-788 -53 c-7 -8 -17 -12 -22 -9 -6 4 -5 10 3 15 22 14 33 10 19 -6z m-3570
-106 c-6 -57 -13 -138 -16 -179 -6 -85 -9 -100 -23 -100 -13 0 -26 61 -15 69
5 3 14 20 20 37 9 24 8 35 -3 50 -12 16 -11 20 4 32 15 10 18 27 18 87 -1 40
3 71 7 69 4 -3 8 7 8 22 0 15 2 25 5 22 4 -3 1 -52 -5 -109z m2217 105 c-3 -3
-12 -4 -19 -1 -8 3 -5 6 6 6 11 1 17 -2 13 -5z m2311 -206 c-7 -13 -11 -27
-10 -32 2 -4 -2 -14 -7 -20 -17 -20 0 -106 20 -106 16 0 9 -39 -8 -49 -14 -7
-18 -23 -18 -62 0 -48 -3 -55 -27 -69 -33 -18 -36 -36 -8 -45 26 -8 70 -62 70
-86 0 -25 -20 -25 -27 1 -3 11 -13 20 -23 20 -9 0 -23 12 -30 28 l-13 27 -9
-32 c-4 -18 -13 -35 -18 -38 -6 -3 -10 -15 -10 -25 0 -28 -84 -50 -101 -26
-10 13 10 63 27 70 8 3 14 14 14 25 0 11 5 23 11 27 6 3 9 18 6 33 -7 36 4 54
29 44 17 -6 17 -5 6 9 -10 13 -11 22 -3 37 6 11 10 24 10 28 -1 4 1 16 4 26 4
9 9 24 12 32 2 8 11 12 20 9 27 -11 41 12 39 66 -2 56 9 105 34 160 l17 35 3
-32 c2 -18 -3 -42 -10 -55z m431 -25 c1 -23 -3 -45 -9 -48 -5 -3 -10 -22 -10
-41 0 -23 -5 -34 -14 -34 -20 0 -30 38 -16 56 8 8 10 28 7 49 -4 23 -1 40 9
49 8 8 14 23 15 33 1 36 18 -20 18 -64z m-279 21 c0 -8 11 -32 25 -52 14 -20
25 -41 25 -47 0 -5 5 -28 12 -50 l12 -40 6 30 c4 19 6 6 6 -37 -1 -80 -20 -92
-37 -23 -6 25 -14 43 -18 41 -4 -3 -7 11 -7 30 0 20 -5 38 -10 42 -12 8 -44
86 -44 107 0 8 7 15 15 15 8 0 15 -7 15 -16z m-1565 -53 c-17 -17 -17 -13 2
37 6 16 6 16 11 -2 2 -10 -4 -26 -13 -35z m131 3 c-4 -9 -9 -15 -11 -12 -3 3
-3 13 1 22 4 9 9 15 11 12 3 -3 3 -13 -1 -22z m-52 -9 c-4 -8 -8 -15 -10 -15
-2 0 -4 7 -4 15 0 8 4 15 10 15 5 0 7 -7 4 -15z m1433 -27 c-3 -8 -6 -5 -6 6
-1 11 2 17 5 13 3 -3 4 -12 1 -19z m240 -40 c-3 -8 -6 -5 -6 6 -1 11 2 17 5
13 3 -3 4 -12 1 -19z m478 -8 c3 -5 -1 -10 -9 -10 -8 0 -18 5 -21 10 -3 6 1
10 9 10 8 0 18 -4 21 -10z m-1795 -9 c0 -19 -23 -71 -31 -71 -13 0 -11 37 3
60 13 21 28 27 28 11z m462 -40 c-5 -36 -32 -51 -32 -18 0 22 16 47 30 47 4 0
5 -13 2 -29z m1383 -22 c-8 -23 -8 -23 -16 -4 -4 11 -8 29 -8 40 -1 18 0 18
15 3 11 -11 14 -23 9 -39z m-475 31 c0 -5 -4 -10 -10 -10 -5 0 -10 5 -10 10 0
6 5 10 10 10 6 0 10 -4 10 -10z m-4954 -52 c-3 -24 -12 -97 -21 -163 -52 -404
-76 -619 -71 -631 8 -22 53 -17 70 8 14 20 74 47 104 48 7 0 12 -13 12 -30 0
-35 4 -37 84 -43 62 -5 86 -21 86 -58 0 -10 6 -19 13 -22 9 -4 9 -7 -1 -18
-11 -11 -14 -10 -18 8 -5 19 -15 22 -77 27 -40 2 -92 4 -117 4 -25 0 -54 0
-65 1 -59 5 -221 -2 -231 -10 -7 -5 -19 0 -34 16 -27 29 -40 32 -40 9 0 -11
-6 -13 -19 -9 -35 11 -69 -4 -73 -33 -4 -26 -3 -27 44 -24 30 3 48 0 48 -7 0
-15 26 -14 50 2 15 9 22 9 28 1 11 -18 73 -31 107 -23 17 4 52 7 79 8 38 1 47
-2 43 -14 -4 -8 -2 -17 3 -20 6 -4 10 3 10 13 0 12 9 22 23 25 12 2 30 8 40
12 12 5 17 3 17 -9 0 -13 13 -16 80 -16 57 0 80 4 80 13 1 7 6 5 14 -5 14 -20
28 -14 19 8 -7 20 4 17 28 -7 17 -17 19 -23 8 -30 -8 -5 -9 -9 -4 -10 41 -3
74 -19 41 -19 -14 0 -17 -5 -13 -22 4 -12 4 -33 1 -45 -5 -20 -13 -23 -49 -23
-26 0 -45 -5 -48 -12 -3 -10 -8 -10 -21 1 -13 11 -39 13 -126 7 -78 -4 -116
-3 -136 6 -22 10 -28 10 -32 0 -5 -16 -59 -16 -65 1 -4 9 -8 8 -16 -3 -8 -12
-14 -13 -30 -3 -15 9 -22 10 -27 2 -4 -8 -10 -6 -16 5 -14 24 -2 32 30 21 16
-6 105 -8 212 -5 157 5 188 3 204 -10 14 -11 20 -12 23 -2 3 7 21 12 44 12 32
0 39 3 39 20 0 14 -7 20 -22 21 -22 0 -22 1 -3 8 15 6 7 9 -30 14 -28 3 -55 1
-62 -5 -7 -6 -23 -8 -35 -5 -32 8 -347 9 -380 1 -20 -5 -28 -2 -28 8 0 10 -11
13 -40 10 -34 -4 -40 -8 -40 -27 0 -13 -4 -27 -10 -30 -23 -14 -7 -25 38 -26
44 -1 45 -1 17 -10 -16 -5 -60 -11 -96 -13 -37 -2 -72 -7 -78 -10 -12 -8 -14
27 -5 87 5 27 12 37 24 37 10 0 21 -6 23 -12 3 -7 6 -3 6 10 1 15 -5 22 -18
22 -29 0 -35 18 -16 46 11 17 15 37 11 58 -6 34 6 62 22 52 5 -3 24 -1 41 5
22 8 40 8 62 0 47 -16 101 1 116 36 10 25 30 156 53 353 8 69 22 146 39 220 6
25 11 62 11 82 0 20 4 39 8 42 5 3 15 30 22 61 8 34 18 55 27 55 11 0 13 -10
9 -42z m3641 0 c-3 -8 -6 -5 -6 6 -1 11 2 17 5 13 3 -3 4 -12 1 -19z m1093 -8
c0 -5 -4 -10 -10 -10 -5 0 -10 5 -10 10 0 6 5 10 10 10 6 0 10 -4 10 -10z
m-4400 -20 c0 -5 -7 -10 -15 -10 -8 0 -15 5 -15 10 0 6 7 10 15 10 8 0 15 -4
15 -10z m880 0 c0 -5 -5 -10 -11 -10 -5 0 -7 5 -4 10 3 6 8 10 11 10 2 0 4 -4
4 -10z m1903 4 c12 -13 -72 -113 -95 -114 -19 0 5 44 46 87 32 34 39 37 49 27z
m-2093 -58 c0 -46 -17 -107 -33 -117 -14 -10 11 -77 30 -81 12 -2 12 -7 -6
-30 -12 -14 -21 -38 -21 -51 0 -14 -4 -29 -10 -32 -5 -3 -10 -15 -10 -26 0
-10 -6 -19 -14 -19 -7 0 -26 -18 -41 -40 -15 -22 -32 -40 -36 -40 -5 0 -9 18
-9 40 0 40 15 55 22 23 3 -16 6 -15 16 5 7 12 16 74 19 137 6 111 7 115 28
115 21 0 23 6 30 80 5 58 11 80 21 80 10 0 14 -13 14 -44z m140 40 c0 -2 -7
-6 -15 -10 -8 -3 -15 -1 -15 4 0 6 7 10 15 10 8 0 15 -2 15 -4z m3230 -21 c-7
-9 -15 -13 -18 -10 -3 2 1 11 8 20 7 9 15 13 18 10 3 -2 -1 -11 -8 -20z m-756
0 c-4 -8 -8 -15 -10 -15 -2 0 -4 7 -4 15 0 8 4 15 10 15 5 0 7 -7 4 -15z
m-3064 -27 c0 -16 -3 -19 -11 -11 -6 6 -8 16 -5 22 11 17 16 13 16 -11z m4180
2 c0 -5 -4 -10 -10 -10 -5 0 -10 5 -10 10 0 6 5 10 10 10 6 0 10 -4 10 -10z
m-411 -85 c1 -16 -1 -17 -9 -5 -5 8 -9 29 -9 45 1 29 1 29 9 5 4 -14 8 -34 9
-45z m276 55 c-3 -5 -12 -10 -20 -10 -8 0 -17 5 -20 10 -4 6 5 10 20 10 15 0
24 -4 20 -10z m-4045 -120 l0 -120 40 0 40 0 0 -40 c0 -35 -3 -40 -22 -40 -50
-1 -58 -19 -58 -134 l0 -106 -30 0 c-19 0 -30 5 -30 14 0 7 -7 19 -15 26 -13
11 -21 8 -45 -15 l-29 -28 -7 41 -7 42 -48 0 -49 0 0 40 c0 33 -3 40 -20 40
-17 0 -20 7 -20 40 l0 40 40 0 40 0 0 40 c0 29 4 40 15 40 11 0 15 11 15 40 0
38 2 40 30 40 l30 0 0 -80 c0 -44 4 -80 9 -80 5 0 12 36 16 80 4 44 11 80 16
80 5 0 9 36 9 80 l0 80 40 0 40 0 0 -120z m4151 98 c11 -11 19 -25 19 -30 0
-13 -18 -10 -23 5 -3 6 -6 -7 -6 -31 -1 -29 4 -44 14 -48 8 -4 15 -14 15 -23
0 -14 2 -14 10 -1 11 18 17 12 22 -20 3 -28 -5 -29 -67 -7 -24 9 -41 23 -43
34 -2 10 -12 27 -22 38 -39 45 -30 75 10 35 27 -27 43 -16 36 24 -9 49 6 59
35 24z m-3565 -29 c3 -6 17 -9 30 -6 35 6 29 -14 -16 -48 -21 -16 -39 -36 -40
-42 0 -18 -20 -16 -20 1 0 8 5 18 10 21 6 3 10 24 10 46 0 38 12 51 26 28z
m2131 -11 c-3 -8 -6 -5 -6 6 -1 11 2 17 5 13 3 -3 4 -12 1 -19z m-2611 -9 c3
-6 1 -16 -6 -22 -10 -9 -14 -9 -17 1 -3 6 -11 12 -19 12 -8 0 -14 5 -14 10 0
14 47 13 56 -1z m2706 -44 c-3 -38 -6 -42 -18 -30 -15 15 -20 50 -5 41 5 -3
11 3 14 14 9 33 12 23 9 -25z m1223 35 c3 -5 2 -10 -4 -10 -5 0 -13 5 -16 10
-3 6 -2 10 4 10 5 0 13 -4 16 -10z m-4415 -49 c0 -28 -4 -53 -10 -56 -5 -3
-10 -24 -10 -45 0 -21 5 -42 10 -45 12 -8 13 -45 1 -45 -5 0 -7 -19 -5 -42 3
-31 2 -36 -4 -18 -7 22 -9 23 -15 7 -4 -10 -7 -38 -7 -62 0 -34 -4 -44 -20
-48 -12 -3 -20 -14 -20 -26 0 -12 -4 -21 -10 -21 -5 0 -10 11 -10 25 0 14 5
25 10 25 6 0 10 18 10 40 0 23 -5 40 -11 40 -7 0 -9 10 -4 28 3 15 6 51 5 80
-1 31 3 52 9 52 6 0 11 16 11 34 0 23 8 44 25 62 14 15 25 35 25 45 0 11 5 19
10 19 6 0 10 -22 10 -49z m4570 39 c0 -5 -2 -10 -4 -10 -3 0 -8 5 -11 10 -3 6
-1 10 4 10 6 0 11 -4 11 -10z m283 -10 c-3 -11 -9 -20 -14 -20 -14 0 -11 28 4
33 6 3 13 6 14 6 0 1 -1 -8 -4 -19z m447 0 c0 -11 -4 -20 -10 -20 -5 0 -10 9
-10 20 0 11 5 20 10 20 6 0 10 -9 10 -20z m-2294 -38 c-12 -11 -18 7 -10 30
l8 23 4 -23 c2 -13 1 -26 -2 -30z m1033 -16 l-1 -31 -13 30 c-8 17 -14 39 -14
50 0 20 0 20 14 1 8 -11 15 -34 14 -50z m1196 -4 c-9 -47 -22 -25 -17 29 4 34
6 39 14 25 6 -10 7 -34 3 -54z m-2188 26 c-3 -7 -5 -2 -5 12 0 14 2 19 5 13 2
-7 2 -19 0 -25z m-2972 -18 c3 -5 1 -10 -4 -10 -6 0 -11 5 -11 10 0 6 2 10 4
10 3 0 8 -4 11 -10z m4028 -6 c15 -5 12 -44 -3 -44 -8 0 -20 24 -20 41 0 11 3
11 23 3z m-157 -62 c-9 -8 -14 0 -21 33 l-6 30 16 -28 c9 -16 14 -31 11 -35z
m-3886 -18 c0 -58 -13 -66 -24 -13 -5 27 6 69 19 69 3 0 5 -25 5 -56z m830 5
c0 -5 -7 -9 -15 -9 -15 0 -20 12 -9 23 8 8 24 -1 24 -14z m3140 0 c0 4 15 8
34 9 37 1 36 4 37 -69 0 -21 4 -26 18 -22 23 6 61 -13 61 -30 0 -7 16 -21 34
-31 34 -18 66 -67 66 -100 0 -21 -7 -20 -37 4 -14 11 -35 20 -47 20 -39 0 -64
12 -69 31 -3 10 -12 19 -21 19 -9 0 -16 7 -16 15 0 8 -8 15 -19 15 -35 0 -83
43 -98 89 -17 50 -6 66 34 50 12 -5 23 -5 23 0z m504 -31 c11 -42 7 -55 -9
-34 -16 22 -20 56 -6 56 5 0 11 -10 15 -22z m-3514 -28 c0 -5 -4 -10 -10 -10
-5 0 -10 5 -10 10 0 6 5 10 10 10 6 0 10 -4 10 -10z m2804 -65 c4 -34 3 -43
-3 -30 -9 19 -15 93 -7 84 2 -2 6 -26 10 -54z m-3764 -27 c0 -12 -8 -18 -21
-18 -17 0 -20 4 -15 23 3 12 6 31 6 42 1 18 2 17 15 -5 8 -14 14 -33 15 -42z
m5220 26 c0 -21 -4 -33 -10 -29 -5 3 -10 16 -10 28 0 18 -2 19 -10 7 -8 -12
-10 -11 -10 8 0 15 6 22 20 22 16 0 20 -7 20 -36z m-180 -34 c0 -5 -4 -10 -10
-10 -5 0 -10 5 -10 10 0 6 5 10 10 10 6 0 10 -4 10 -10z m-4643 -82 c-3 -8 -6
-5 -6 6 -1 11 2 17 5 13 3 -3 4 -12 1 -19z m4633 -18 c0 -5 -10 -10 -22 -10
-19 0 -20 2 -8 10 19 13 30 13 30 0z m-3320 -12 c0 -19 -18 -43 -25 -36 -4 3
-2 16 5 27 12 24 20 27 20 9z m2340 2 c0 -5 -5 -10 -11 -10 -5 0 -7 5 -4 10 3
6 8 10 11 10 2 0 4 -4 4 -10z m-3775 -100 c0 -8 -8 -16 -17 -18 -13 -2 -18 3
-18 18 0 15 5 20 18 18 9 -2 17 -10 17 -18z m1462 -12 c-3 -7 -5 -2 -5 12 0
14 2 19 5 13 2 -7 2 -19 0 -25z m3501 21 c-2 -6 -8 -10 -13 -10 -5 0 -11 4
-13 10 -2 6 4 11 13 11 9 0 15 -5 13 -11z m-678 -64 c0 -5 -5 -3 -10 5 -5 8
-10 20 -10 25 0 6 5 3 10 -5 5 -8 10 -19 10 -25z m-66 -27 c-9 -14 -23 2 -17
18 4 12 8 13 14 3 4 -7 5 -17 3 -21z m-4144 -38 c36 0 76 -7 90 -15 14 -8 49
-14 78 -15 67 0 68 -24 1 -28 -35 -2 -50 -9 -70 -33 -15 -17 -30 -26 -33 -20
-4 5 -22 7 -41 4 -20 -3 -41 -1 -49 6 -8 6 -28 13 -46 16 -25 3 -29 1 -21 -9
12 -14 5 -26 -15 -26 -7 0 -10 8 -7 20 4 15 0 20 -16 20 -11 0 -21 -4 -21 -9
0 -19 -39 2 -86 47 l-49 47 45 5 c25 3 74 2 110 -2 36 -4 94 -7 130 -8z m2167
-77 c12 -8 27 -12 33 -8 5 3 10 0 10 -7 0 -9 2 -10 8 -2 12 19 44 19 95 0 37
-15 46 -23 42 -37 -4 -12 3 -22 26 -33 17 -9 35 -13 39 -11 12 7 103 -25 112
-39 5 -7 47 -10 128 -8 129 3 162 -7 176 -50 4 -13 9 -17 13 -9 5 7 15 3 31
-14 13 -14 28 -25 33 -25 24 0 97 -112 97 -149 0 -8 11 -26 24 -40 18 -20 56
-106 56 -127 0 -1 -10 -4 -22 -6 -21 -3 -21 -4 9 -38 33 -38 79 -160 69 -185
-3 -8 -1 -17 4 -20 6 -4 6 -14 -1 -27 -8 -16 -7 -33 6 -74 9 -30 21 -54 26
-54 5 0 9 -10 9 -23 0 -33 23 -62 44 -54 9 4 16 2 16 -3 0 -6 -14 -10 -31 -10
-26 0 -29 -2 -20 -14 15 -18 2 -22 -102 -31 -144 -12 -340 -81 -447 -155 -43
-30 -70 -34 -86 -13 -13 17 -14 17 -20 -4 -3 -13 -10 -20 -15 -17 -5 2 -11 -6
-14 -19 -4 -14 -20 -34 -36 -46 -16 -12 -29 -27 -29 -34 0 -7 -8 -17 -19 -24
-10 -6 -21 -25 -24 -41 -5 -26 -11 -30 -53 -36 -26 -3 -61 -6 -79 -6 -18 0
-38 -7 -45 -15 -11 -13 -8 -15 21 -16 43 -2 49 -3 77 -13 18 -6 21 -11 12 -21
-9 -10 -7 -16 7 -24 26 -13 71 -106 78 -161 8 -55 24 -90 39 -84 19 6 116
-183 132 -256 7 -36 14 -68 14 -72 0 -15 -28 -8 -34 8 -3 8 -10 12 -16 9 -15
-9 -12 -25 5 -25 11 0 15 -11 15 -40 0 -29 -4 -40 -15 -40 -8 0 -15 -9 -15
-21 0 -12 4 -17 11 -14 36 23 129 1 129 -30 0 -11 6 -15 19 -10 29 9 92 -81
94 -136 2 -34 -3 -45 -24 -61 -22 -17 -47 -20 -175 -24 -82 -3 -150 -9 -152
-14 -2 -6 -9 -10 -15 -10 -7 -1 -25 -18 -42 -39 -16 -21 -37 -42 -46 -47 -9
-5 -36 -22 -60 -38 -43 -29 -43 -30 -19 -36 17 -4 21 -8 12 -14 -8 -5 -9 -13
-2 -26 5 -10 10 -28 10 -40 0 -18 -3 -19 -21 -9 -12 6 -39 9 -60 6 -25 -3 -37
-1 -33 5 9 14 -38 -1 -49 -16 -6 -8 -10 -8 -14 2 -7 17 -23 15 -23 -2 0 -18
-17 -29 -31 -21 -7 5 -5 13 5 24 8 9 14 30 13 46 -2 24 -7 30 -28 32 -19 1
-30 -5 -39 -23 -12 -21 -50 -35 -50 -18 0 12 24 49 36 57 20 11 17 37 -3 37
-27 -1 -53 -25 -53 -48 0 -11 -8 -27 -18 -34 -10 -7 -22 -22 -25 -32 -4 -10
-10 -16 -13 -13 -10 10 -45 -33 -51 -63 -3 -17 -10 -30 -15 -30 -6 0 -7 8 -4
18 5 15 5 15 -6 1 -7 -8 -21 -18 -30 -22 -10 -3 -18 -11 -18 -17 0 -5 -11 -10
-24 -10 -17 0 -30 -10 -45 -35 -24 -41 -41 -45 -41 -10 0 26 -14 34 -24 13 -3
-7 -3 1 0 17 l5 30 -24 -27 c-17 -18 -38 -29 -62 -31 -20 -2 -45 -11 -56 -21
-11 -9 -24 -14 -28 -12 -4 3 -17 -8 -29 -23 -32 -44 -10 -107 35 -98 19 3 23
0 23 -21 0 -24 1 -24 13 -8 13 17 14 17 31 1 12 -12 26 -16 47 -11 25 5 32 2
36 -14 3 -13 14 -20 28 -20 13 0 35 -6 50 -14 23 -12 34 -12 69 -2 23 7 50 9
61 5 45 -18 94 -7 133 29 17 15 174 15 247 0 28 -5 110 -12 184 -14 119 -3
135 -6 151 -24 9 -11 25 -20 33 -20 9 0 21 -9 27 -20 9 -17 21 -20 74 -20 42
0 67 5 75 14 10 12 84 31 104 27 4 -1 16 3 27 9 13 7 33 7 62 -1 24 -6 63 -13
88 -16 24 -2 56 -11 71 -18 41 -22 97 -9 115 26 8 16 18 29 22 29 4 0 9 14 10
32 3 32 18 51 36 45 6 -2 17 4 25 12 9 9 29 26 45 37 25 18 31 31 36 80 6 51
4 63 -19 101 -14 23 -30 43 -36 43 -16 1 -50 33 -70 67 -17 29 -20 31 -39 17
-25 -17 -53 -18 -58 -2 -3 8 -14 4 -34 -10 -16 -11 -42 -22 -59 -23 -38 -3
-115 11 -115 21 0 4 -16 15 -36 25 -23 11 -34 22 -30 31 3 8 -1 14 -9 14 -28
0 -30 80 -2 80 7 1 20 17 29 37 15 31 15 40 4 62 -8 14 -17 42 -21 61 -7 34
-45 119 -67 151 -14 20 7 79 28 79 8 0 14 5 14 11 0 6 -7 9 -14 6 -10 -4 -13
-1 -9 9 3 9 13 13 22 10 9 -3 48 -14 86 -25 122 -35 347 -25 427 19 10 6 25
10 33 10 8 0 15 5 15 10 0 11 -20 7 -100 -16 -74 -23 -196 -27 -285 -11 -89
17 -187 51 -209 73 -8 8 -19 14 -24 14 -12 0 -120 95 -146 128 -28 35 1 16 36
-24 30 -34 117 -94 136 -94 12 0 11 54 -1 67 -19 19 -3 34 66 63 15 7 27 20
27 30 0 10 11 27 25 38 14 11 25 24 25 29 0 15 66 42 89 36 12 -3 21 -12 21
-19 0 -20 33 -17 60 6 28 24 30 24 58 4 18 -13 28 -13 55 -3 25 9 46 9 85 0
29 -6 73 -11 97 -11 36 0 45 -4 46 -17 1 -17 2 -17 6 0 6 21 19 22 31 2 4 -9
22 -17 38 -18 24 -1 30 -6 26 -19 -2 -10 -9 -15 -15 -11 -6 4 -7 1 -3 -6 6 -9
13 -8 29 6 20 17 20 17 14 -2 -7 -19 -7 -19 8 -1 8 10 12 23 8 29 -3 6 -1 7 6
3 14 -9 73 113 95 196 19 70 20 21 1 -58 -20 -86 -81 -210 -128 -261 -22 -24
-34 -43 -28 -43 6 0 19 9 28 20 21 24 41 27 22 3 -12 -15 -12 -16 5 -10 17 7
17 6 4 -15 -17 -26 -13 -49 6 -42 8 3 20 -9 30 -30 20 -43 44 -58 68 -45 42
23 104 -73 78 -120 -5 -11 -10 -28 -10 -38 1 -31 70 190 70 224 0 11 7 23 14
26 8 3 18 22 22 41 3 20 10 36 14 36 38 0 6 -198 -54 -341 -5 -11 -1 -18 13
-22 27 -7 27 -32 1 -133 -26 -103 -35 -196 -21 -222 12 -22 3 -92 -9 -72 -4 7
-6 22 -3 34 3 16 0 14 -12 -8 -11 -18 -15 -39 -11 -58 4 -20 1 -30 -9 -34 -9
-4 -15 -20 -15 -42 0 -19 -7 -43 -16 -53 -16 -18 -13 -49 5 -49 5 0 11 9 14
20 6 22 27 28 27 8 -1 -65 -125 -330 -162 -346 -5 -2 -8 -10 -8 -18 0 -8 -6
-17 -13 -20 -8 -3 -31 -28 -53 -57 -21 -29 -44 -56 -51 -60 -7 -4 -13 -14 -13
-22 0 -8 -16 -21 -35 -29 -19 -8 -35 -20 -35 -25 0 -6 -19 -23 -42 -37 -24
-15 -46 -31 -49 -37 -10 -14 -29 1 -29 24 0 23 -4 24 -30 2 -21 -18 -27 -53
-10 -53 6 0 10 -7 10 -16 0 -14 -3 -14 -15 -4 -13 11 -15 7 -15 -29 0 -48 -15
-55 -25 -11 -9 40 -23 47 -35 15 -6 -16 -14 -23 -22 -19 -6 4 -8 3 -4 -4 12
-19 -17 -26 -31 -7 -12 17 -13 17 -13 2 0 -10 -11 -22 -25 -27 -33 -13 -40
-34 -21 -62 20 -29 20 -39 0 -31 -14 5 -15 3 -5 -15 21 -39 11 -34 -37 16 -36
39 -51 49 -62 42 -8 -5 -24 -7 -35 -3 -18 5 -18 5 -2 -11 24 -24 22 -45 -3
-39 -12 3 -20 14 -20 25 0 14 -5 18 -16 14 -9 -3 -20 -6 -25 -6 -5 0 -9 -11
-9 -25 0 -29 -7 -31 -32 -8 -17 15 -18 14 -18 -17 0 -32 -1 -33 -15 -14 -8 10
-15 26 -15 34 0 19 -40 21 -40 3 0 -7 -6 -10 -14 -7 -8 3 -17 -3 -20 -14 -4
-12 -16 -20 -29 -21 -74 -2 -94 -5 -109 -18 -14 -12 -20 -12 -40 -2 -13 7 -29
12 -37 10 -8 -1 -18 3 -22 11 -7 11 -9 11 -9 -1 0 -10 -9 -12 -34 -7 -24 5
-37 2 -46 -9 -7 -8 -28 -15 -46 -15 -19 0 -61 -9 -94 -21 -33 -11 -69 -18 -80
-14 -11 3 -25 3 -32 -1 -18 -12 -75 -9 -91 5 -12 9 -16 9 -20 -1 -4 -10 -7
-10 -15 1 -5 7 -15 10 -21 7 -6 -4 -14 0 -17 9 -8 20 -51 12 -71 -13 -11 -15
-12 -15 -13 6 0 15 -9 26 -27 34 -16 7 -35 19 -44 28 -9 9 -27 25 -40 36 -13
10 -30 31 -38 46 -8 16 -18 28 -23 28 -5 0 -39 32 -76 71 -37 39 -89 87 -117
107 -27 20 -64 50 -82 67 -17 16 -45 43 -62 59 -110 104 -220 306 -284 521
-29 97 -58 252 -77 415 -10 91 -24 203 -29 250 -6 47 -12 111 -14 143 l-4 58
31 -29 c66 -61 182 -130 246 -146 14 -4 -6 9 -45 29 -87 46 -120 71 -196 148
-104 107 -166 261 -176 439 -7 128 18 214 81 279 56 58 76 73 84 64 4 -4 0
-10 -8 -13 -8 -3 -34 -25 -57 -51 -40 -42 -67 -104 -87 -193 -10 -47 13 -203
42 -286 28 -78 86 -182 103 -182 4 0 5 24 1 53 -4 28 -7 152 -7 274 0 132 -4
219 -9 215 -5 -3 -6 2 -3 12 4 10 7 38 7 63 0 42 1 45 23 38 12 -4 42 -8 67
-9 37 -1 45 2 42 16 -4 28 14 30 83 7 68 -22 87 -20 66 5 -10 12 -6 13 26 9
21 -3 43 -9 49 -14 6 -5 24 -9 40 -9 80 -1 84 -2 84 -21 0 -14 7 -19 28 -19
23 -1 25 -2 9 -11 -9 -6 -26 -12 -37 -14 -35 -7 -205 -78 -224 -94 -28 -24
-44 -70 -44 -128 -1 -57 17 -85 42 -64 10 8 16 9 21 1 3 -5 0 -10 -7 -10 -20
0 13 -20 33 -20 11 0 19 11 23 33 7 35 50 83 109 122 21 14 40 25 42 25 2 0 9
-17 15 -37 18 -65 41 -86 103 -93 30 -3 67 -2 83 2 32 8 44 -3 43 -42 -1 -17
-3 -19 -6 -7 -2 9 -11 17 -20 17 -10 0 -14 -6 -10 -20 4 -14 -2 -25 -19 -36
-28 -19 -34 -50 -6 -39 9 4 29 10 44 12 27 5 113 71 104 81 -11 10 41 40 93
53 57 14 71 30 53 60 -9 15 -9 17 2 13 8 -3 17 -1 21 5 12 21 23 11 29 -30 8
-52 -7 -101 -36 -114 -22 -10 -40 -65 -21 -65 4 0 16 -7 26 -15 18 -13 18 -16
2 -72 -20 -68 -54 -130 -105 -193 -53 -65 -59 -80 -15 -40 56 53 113 142 152
239 30 76 35 99 37 191 4 119 15 155 51 172 28 13 31 21 12 36 -8 7 -26 8 -50
2 -35 -8 -59 2 -37 15 5 3 10 15 10 27 0 17 3 18 15 8 12 -10 16 -9 21 4 4 11
-3 24 -21 38 -19 15 -26 27 -22 44 3 16 0 24 -9 24 -8 0 -14 4 -14 9 0 11 -40
26 -140 52 -41 11 -100 29 -130 40 -94 35 -232 59 -324 56 -48 -2 -87 1 -89 6
-2 6 -14 4 -27 -4 -14 -7 -32 -14 -41 -15 -9 -1 -28 -4 -43 -8 -22 -5 -26 -3
-26 16 0 13 -7 31 -14 41 -14 17 -17 16 -56 -19 l-41 -37 7 29 c4 16 13 38 19
49 7 11 16 37 19 58 4 21 23 68 41 105 19 37 35 75 35 84 0 27 20 109 35 143
7 17 16 41 19 55 51 239 61 270 90 270 6 0 17 23 24 52 6 29 19 56 27 61 10 5
14 16 10 28 -4 13 -2 19 9 19 8 0 21 9 29 20 8 11 17 17 21 13 4 -4 20 -8 36
-9 20 -1 27 2 23 12 -3 8 0 14 6 14 6 0 11 -5 11 -11 0 -20 47 35 53 62 4 15
18 34 32 43 14 9 25 23 25 31 0 8 8 15 18 15 11 0 34 7 51 16 18 9 58 18 89
20 57 3 142 20 177 35 87 37 137 41 182 12z m-967 -37 c0 -2 -8 -10 -17 -17
-16 -13 -17 -12 -4 4 13 16 21 21 21 13z m3257 -43 c-3 -10 -5 -2 -5 17 0 19
2 27 5 18 2 -10 2 -26 0 -35z m-4662 -73 c3 -5 -1 -10 -10 -10 -9 0 -13 5 -10
10 3 6 8 10 10 10 2 0 7 -4 10 -10z m4145 -24 c0 -19 -3 -41 -6 -50 -12 -32
-22 -15 -21 34 2 58 27 73 27 16z m-3630 -97 c0 -6 -7 -17 -15 -25 -16 -16
-19 -7 -9 20 7 18 24 22 24 5z m3437 -21 c-3 -8 -6 -5 -6 6 -1 11 2 17 5 13 3
-3 4 -12 1 -19z m318 -30 c-4 -18 -15 -47 -25 -64 -10 -18 -20 -64 -24 -115
-4 -47 -12 -92 -17 -100 -10 -14 -10 -8 7 144 3 31 11 57 16 57 6 0 9 16 5 39
-2 21 0 45 5 52 7 11 8 9 4 -6 -5 -18 -4 -17 10 3 22 30 27 28 19 -10z m-219
-46 c-12 -11 -18 7 -10 30 l8 23 4 -23 c2 -13 1 -26 -2 -30z m-3579 6 c-3 -8
-6 -5 -6 6 -1 11 2 17 5 13 3 -3 4 -12 1 -19z m40 -30 c-3 -8 -6 -5 -6 6 -1
11 2 17 5 13 3 -3 4 -12 1 -19z m-67 -63 c-11 -38 -19 -58 -19 -44 -1 24 28
123 34 117 2 -2 -5 -34 -15 -73z m67 -12 c-3 -10 -5 -2 -5 17 0 19 2 27 5 18
2 -10 2 -26 0 -35z m3490 -55 c-3 -7 -5 -2 -5 12 0 14 2 19 5 13 2 -7 2 -19 0
-25z m-310 -50 c-2 -13 -4 -5 -4 17 -1 22 1 32 4 23 2 -10 2 -28 0 -40z
m-3911 29 c8 3 14 1 14 -5 0 -6 -6 -12 -12 -15 -10 -3 -8 -12 6 -37 14 -24 15
-34 7 -40 -13 -8 -5 -80 9 -80 4 0 10 22 14 48 3 27 13 57 21 68 13 18 14 16
15 -19 0 -47 20 -128 29 -123 4 3 13 -16 20 -42 8 -26 17 -51 21 -57 4 -5 10
-24 13 -42 5 -24 3 -31 -7 -27 -8 3 -16 -3 -18 -14 -4 -13 -18 -23 -39 -27
-19 -4 -44 -16 -55 -27 -21 -19 -43 -10 -29 12 3 6 1 10 -4 10 -6 0 -11 -13
-11 -30 0 -17 -3 -29 -7 -28 -15 5 -93 -81 -93 -102 0 -11 -4 -20 -10 -20 -5
0 -10 -9 -10 -19 0 -11 -4 -22 -8 -25 -4 -2 -9 -19 -10 -37 -2 -18 -8 -36 -14
-40 -6 -4 -8 -11 -4 -17 4 -6 -2 -8 -14 -5 -18 5 -20 0 -20 -36 0 -22 -4 -41
-10 -41 -5 0 -8 -17 -7 -37 1 -28 -2 -38 -14 -41 -10 -2 -16 3 -16 10 2 25
-14 133 -23 153 -5 11 -14 32 -20 48 -5 15 -16 27 -24 27 -27 0 -46 55 -46
132 -1 40 -1 84 -2 98 -2 50 1 60 19 53 14 -5 15 -1 10 27 -6 26 -3 36 13 47
11 8 20 21 20 29 0 8 7 14 16 14 12 0 15 10 14 43 -3 68 -1 87 10 87 6 0 10
-16 10 -35 0 -34 12 -46 25 -25 3 6 17 10 31 10 21 0 24 4 24 39 0 39 -1 40
-37 43 -37 3 -38 4 -41 46 l-3 42 40 -6 c28 -4 41 -3 41 5 0 6 9 11 20 11 11
0 20 -4 20 -10 0 -14 27 -12 33 3 3 6 6 -3 6 -20 1 -18 5 -33 10 -33 15 0 42
31 36 41 -10 15 6 32 17 21 6 -6 17 -8 24 -5z m641 -24 c-3 -10 -5 -4 -5 12 0
17 2 24 5 18 2 -7 2 -21 0 -30z m-552 17 c3 -5 1 -10 -4 -10 -6 0 -11 5 -11
10 0 6 2 10 4 10 3 0 8 -4 11 -10z m582 -42 c-3 -7 -5 -2 -5 12 0 14 2 19 5
13 2 -7 2 -19 0 -25z m-16 -89 c-8 -38 -9 -40 -10 -12 -1 17 2 39 5 48 11 29
14 10 5 -36z m4105 14 c-7 -7 -26 7 -26 19 0 6 6 6 15 -2 9 -7 13 -15 11 -17z
m106 -61 c3 7 8 -5 12 -26 6 -33 28 -69 38 -66 2 1 11 -2 20 -5 11 -5 16 -16
15 -36 -2 -31 -17 -41 -17 -11 0 10 -12 30 -27 44 -16 14 -33 34 -40 44 -11
17 -12 17 -12 2 -1 -30 -21 -20 -21 10 0 18 -3 23 -9 14 -6 -10 -13 2 -25 37
-23 70 -21 72 23 23 25 -27 41 -38 43 -30z m-4645 16 c-3 -7 -5 -2 -5 12 0 14
2 19 5 13 2 -7 2 -19 0 -25z m404 -24 c-6 -28 -9 -32 -10 -14 -1 30 11 79 16
64 2 -6 -1 -28 -6 -50z m-1150 -27 c-13 -13 -15 15 -3 53 7 24 7 23 10 -9 2
-18 -1 -38 -7 -44z m772 -7 c-3 -11 -9 -17 -15 -14 -5 3 -4 12 3 20 16 19 18
18 12 -6z m4564 -110 c1 -11 0 -20 -5 -20 -10 0 -31 48 -24 55 8 8 25 -12 29
-35z m60 -2 c-3 -8 -6 -5 -6 6 -1 11 2 17 5 13 3 -3 4 -12 1 -19z m96 -86 c2
7 4 -8 4 -35 l0 -47 -19 41 c-21 48 -23 72 -4 46 10 -13 15 -15 19 -5z m-66
-177 l3 -60 -15 55 c-9 30 -22 69 -29 85 -8 17 -17 48 -21 70 -6 38 -5 37 26
-25 24 -47 34 -81 36 -125z m-470 93 c-2 -13 -4 -3 -4 22 0 25 2 35 4 23 2
-13 2 -33 0 -45z m-317 21 c-7 -11 -14 -18 -17 -15 -3 3 0 12 7 21 18 21 23
19 10 -6z m177 -71 c-3 -8 -6 -5 -6 6 -1 11 2 17 5 13 3 -3 4 -12 1 -19z m823
-82 c0 -8 5 -18 10 -21 6 -3 10 -16 10 -27 0 -11 7 -26 16 -32 9 -7 12 -18 8
-29 -11 -29 -20 -19 -38 41 -10 31 -29 78 -42 104 -32 63 -30 70 6 20 17 -23
30 -48 30 -56z m-690 52 c-1 -26 -3 -30 -10 -16 -6 9 -7 23 -4 32 9 25 14 19
14 -16z m634 -123 c4 -28 9 -63 12 -79 4 -17 2 -26 -4 -22 -5 3 -12 29 -16 58
-4 29 -14 72 -22 96 -20 60 -17 85 5 37 10 -23 21 -63 25 -90z m-4870 45 c-1
-14 -3 -33 -3 -43 -1 -11 -7 -17 -13 -14 -7 2 -12 10 -10 17 1 7 -2 18 -7 24
-7 8 -7 23 -2 42 l9 29 1 -30 c1 -21 4 -26 10 -16 5 7 7 23 4 35 -3 20 -3 20
5 1 5 -11 8 -31 6 -45z m3246 55 c0 -18 -41 -47 -59 -42 -11 3 -22 -1 -25 -8
-2 -7 -20 -16 -38 -20 -18 -4 -38 -11 -44 -16 -6 -5 -30 -8 -52 -7 -49 2 -44
15 16 44 55 26 202 62 202 49z m73 -2 c-7 -2 -21 -2 -30 0 -10 3 -4 5 12 5 17
0 24 -2 18 -5z m904 -45 c-3 -7 -5 -2 -5 12 0 14 2 19 5 13 2 -7 2 -19 0 -25z
m-4337 3 c0 -5 -6 -11 -12 -14 -10 -3 -10 -7 -1 -19 15 -17 7 -28 -19 -28 -20
0 -23 21 -8 51 11 19 40 27 40 10z m4477 -33 c-3 -7 -5 -2 -5 12 0 14 2 19 5
13 2 -7 2 -19 0 -25z m-4427 -12 c-13 -13 -35 7 -25 24 5 8 11 8 21 -1 10 -8
12 -15 4 -23z m1640 4 c-13 -9 -13 -11 0 -19 25 -17 -16 -25 -50 -11 -25 10
-36 10 -62 -3 -62 -28 -80 -31 -76 -11 2 13 16 21 43 26 22 5 60 12 85 17 25
5 52 9 60 10 13 1 13 0 0 -9z m110 0 c0 -5 -9 -10 -20 -10 -11 0 -20 -4 -20
-10 0 -5 -9 -10 -19 -10 -14 0 -18 5 -14 20 4 15 14 20 39 20 19 0 34 -4 34
-10z m2349 -67 c16 -71 115 -306 148 -349 12 -17 23 -35 23 -40 0 -5 16 -27
35 -49 20 -22 48 -60 62 -85 15 -25 30 -47 34 -50 9 -7 31 -50 25 -50 -3 0
-14 10 -26 22 -24 26 -28 4 -5 -26 8 -11 15 -29 15 -41 0 -12 4 -25 9 -31 12
-13 31 -74 23 -73 -19 3 -25 -2 -12 -11 12 -7 12 -12 2 -22 -10 -10 -15 -10
-22 2 -14 22 -12 40 5 40 10 0 6 9 -12 28 -14 15 -31 26 -38 24 -7 -1 -18 4
-24 12 -11 13 -9 14 13 10 26 -4 26 -4 -7 30 -19 19 -47 62 -63 95 -18 39 -34
59 -42 56 -9 -3 -11 1 -7 14 3 12 -17 60 -60 137 -44 82 -71 145 -85 203 -12
46 -19 85 -16 88 3 3 1 16 -4 28 -10 25 -2 95 10 95 4 0 13 -26 19 -57z m582
14 c-8 -8 -11 -3 -11 19 1 25 2 27 11 11 8 -14 8 -22 0 -30z m125 -26 c5 -40
4 -52 -5 -47 -7 5 -11 -2 -11 -21 0 -26 -2 -24 -20 16 -25 54 -25 55 1 48 20
-5 21 -3 15 36 -5 28 -4 39 3 32 5 -5 13 -34 17 -64z m-3391 24 c-32 -26 -45
-31 -45 -16 0 7 56 40 70 41 3 0 -8 -11 -25 -25z m-1365 -15 c0 -5 -2 -10 -4
-10 -3 0 -8 5 -11 10 -3 6 -1 10 4 10 6 0 11 -4 11 -10z m-133 -32 c-3 -7 -5
-2 -5 12 0 14 2 19 5 13 2 -7 2 -19 0 -25z m1513 2 c0 -5 -4 -10 -10 -10 -5 0
-10 5 -10 10 0 6 5 10 10 10 6 0 10 -4 10 -10z m3601 -12 c10 -13 18 -29 19
-35 0 -20 -27 -15 -33 5 -2 9 -8 25 -12 35 -10 24 3 21 26 -5z m-4994 -24 c11
-10 12 -19 6 -25 -11 -11 -43 14 -43 32 0 14 20 11 37 -7z m-59 -63 c-15 -6
-20 7 -12 31 l8 23 6 -25 c3 -14 2 -27 -2 -29z m4052 2 c0 -8 17 -50 39 -93
21 -43 35 -83 32 -89 -15 -23 -63 58 -75 125 -3 18 -8 44 -12 59 -5 20 -4 26
5 21 6 -4 11 -14 11 -23z m-4290 -55 c0 -16 -5 -28 -12 -28 -8 0 -13 17 -14
45 -1 40 0 43 12 28 7 -10 14 -30 14 -45z m3097 20 c-3 -8 -6 -5 -6 6 -1 11 2
17 5 13 3 -3 4 -12 1 -19z m2172 -70 c18 -32 30 -58 27 -58 -9 0 -53 72 -61
100 -10 33 -5 27 34 -42z m-5319 31 c0 -13 -24 -22 -46 -17 -17 3 -17 4 0 20
16 17 46 15 46 -3z m2174 12 c7 -10 -54 -36 -107 -46 -29 -6 -37 -4 -37 8 0
29 129 63 144 38z m-720 -68 c-9 -48 -8 -48 -44 -33 -22 9 -28 16 -20 25 5 6
7 15 4 18 -12 12 8 27 37 27 29 0 30 -1 23 -37z m566 18 c0 -10 -8 -21 -17
-25 -19 -6 -55 -27 -63 -37 -10 -12 -52 -30 -57 -25 -8 8 14 56 26 56 5 0 16
6 23 13 43 39 88 48 88 18z m-2024 -71 c1 -33 -3 -60 -8 -60 -6 0 -8 6 -5 14
3 8 1 30 -5 49 -11 34 -4 77 9 63 4 -4 8 -34 9 -66z m783 24 c-11 -38 -39 -80
-39 -57 0 7 5 15 10 18 6 3 10 15 10 26 0 18 21 61 27 55 1 -1 -2 -20 -8 -42z
m1421 26 c0 -5 -7 -10 -15 -10 -8 0 -15 5 -15 10 0 6 7 10 15 10 8 0 15 -4 15
-10z m927 -52 c-3 -8 -6 -5 -6 6 -1 11 2 17 5 13 3 -3 4 -12 1 -19z m-3258
-20 l13 -21 18 23 18 23 7 -34 c8 -34 8 -34 17 -9 9 24 10 24 20 6 8 -15 8
-21 0 -24 -16 -5 -15 -86 0 -129 13 -36 38 -45 38 -14 0 11 4 22 9 25 10 6 26
-82 17 -92 -3 -3 -6 7 -6 21 0 15 -4 27 -10 27 -5 0 -10 -18 -10 -40 0 -22 -5
-40 -11 -40 -14 0 -48 -41 -49 -57 0 -7 -4 -13 -10 -13 -5 0 -9 -3 -9 -7 4
-22 -3 -33 -17 -33 -28 0 -43 32 -44 90 -1 50 -2 53 -15 36 -8 -10 -20 -16
-28 -13 -18 7 -27 86 -16 135 5 20 9 53 9 72 l0 35 25 -30 c13 -16 25 -37 25
-45 1 -13 2 -13 9 0 16 28 22 70 10 70 -6 0 -17 6 -25 14 -7 8 -19 17 -26 19
-10 4 -9 8 2 16 21 15 23 14 39 -11z m4631 -98 c0 -5 -4 -10 -10 -10 -5 0 -10
5 -10 10 0 6 5 10 10 10 6 0 10 -4 10 -10z m-2125 -10 c3 -5 -1 -10 -10 -10
-9 0 -13 5 -10 10 3 6 8 10 10 10 2 0 7 -4 10 -10z m772 -12 c-3 -8 -6 -5 -6
6 -1 11 2 17 5 13 3 -3 4 -12 1 -19z m1393 -31 c0 -5 -7 -4 -15 3 -8 7 -15 20
-15 29 1 13 3 13 15 -3 8 -11 15 -24 15 -29z m-1337 -95 c16 -30 26 -56 24
-59 -7 -6 -77 137 -76 156 0 9 6 3 12 -14 7 -16 25 -54 40 -83z m1347 36 c0
-4 14 -28 31 -53 25 -37 29 -49 19 -60 -18 -21 -50 -1 -50 31 0 14 -4 23 -10
19 -6 -3 -13 2 -17 12 -4 10 -14 24 -22 31 -14 11 -14 13 2 26 15 12 15 15 2
26 -8 7 -15 20 -15 28 0 11 10 4 30 -18 16 -19 29 -38 30 -42z m-1963 40 c-3
-8 -6 -5 -6 6 -1 11 2 17 5 13 3 -3 4 -12 1 -19z m33 -18 c0 -5 -5 -10 -11
-10 -5 0 -7 5 -4 10 3 6 8 10 11 10 2 0 4 -4 4 -10z m2690 -86 c13 -14 12 -15
-15 -8 -16 3 -37 13 -45 21 -13 14 -12 15 15 9 17 -4 37 -14 45 -22z m-5280
-44 c0 -30 -4 -40 -16 -40 -12 0 -14 5 -9 18 4 9 10 27 12 40 8 34 13 27 13
-18z m4859 14 c17 -38 6 -42 -14 -5 -8 17 -12 31 -7 31 5 0 14 -12 21 -26z
m-4782 -26 c-3 -8 -6 -5 -6 6 -1 11 2 17 5 13 3 -3 4 -12 1 -19z m4911 -36 c6
-18 -15 -14 -22 4 -4 10 -1 14 6 12 6 -2 14 -10 16 -16z m-5413 -34 c-3 -24
-9 -81 -14 -128 -17 -143 -60 -470 -77 -570 -9 -52 -20 -133 -24 -180 -5 -47
-14 -114 -20 -150 -25 -157 -62 -415 -76 -530 -8 -69 -24 -179 -34 -245 -18
-105 -39 -262 -56 -405 -3 -25 -8 -52 -11 -60 -3 -8 -7 -24 -8 -35 -1 -11 -14
-98 -29 -193 -14 -96 -26 -181 -27 -190 0 -11 -2 -12 -6 -4 -2 6 -11 12 -19
12 -9 0 -12 5 -9 10 4 6 11 8 16 5 5 -4 9 0 9 7 0 7 3 24 7 38 6 21 4 23 -9
13 -29 -24 -31 1 -5 55 8 17 8 25 0 30 -6 4 -9 20 -6 35 4 19 8 24 13 17 9
-15 30 -4 30 16 0 8 -10 14 -26 14 -26 0 -26 2 -22 49 3 27 14 61 25 77 19 27
19 30 5 44 -9 8 -21 15 -26 15 -5 0 -11 6 -14 14 -3 10 0 12 12 8 9 -4 16 -2
16 3 0 6 6 10 14 10 9 0 16 15 20 43 23 173 30 213 41 240 4 10 2 36 -4 58
-13 43 -6 84 11 73 8 -5 9 6 4 37 -5 24 -7 55 -7 69 1 14 2 38 3 53 0 18 5 26
13 23 13 -5 35 12 35 26 0 5 -12 5 -26 2 -24 -6 -25 -5 -15 14 8 15 8 21 0 24
-7 2 4 19 22 38 32 33 33 35 12 38 -20 3 -21 6 -11 35 6 18 17 37 24 43 12 10
12 17 -1 48 -14 34 -14 36 3 36 15 0 22 15 37 79 11 50 15 94 11 120 -3 24 -2
41 3 41 5 0 9 21 9 48 -2 83 14 211 29 223 10 9 11 15 1 26 -8 10 -9 16 -1 21
11 7 29 94 26 122 -1 8 2 31 7 51 14 50 21 116 34 308 2 35 9 68 15 74 6 6 11
19 11 28 0 9 7 30 15 45 8 16 15 38 15 49 0 32 24 125 32 125 4 0 5 -19 3 -42z
m5515 1 c0 -15 -45 8 -48 25 -4 17 -2 17 22 1 14 -10 26 -21 26 -26z m-336
-115 c7 -19 -2 -37 -15 -29 -12 8 -12 45 0 45 5 0 12 -7 15 -16z m-5359 -72
c-7 -53 -9 -72 -19 -207 -4 -49 -11 -101 -16 -115 -10 -27 -23 -140 -24 -207
0 -28 -5 -43 -13 -43 -9 0 -11 -8 -8 -22 3 -13 6 -32 7 -43 1 -26 -21 -142
-34 -180 -6 -16 -14 -70 -19 -120 -14 -155 -31 -319 -35 -345 -2 -14 -9 -59
-15 -100 -6 -41 -16 -80 -21 -87 -5 -7 -7 -16 -4 -21 2 -4 -6 -64 -20 -132
-16 -76 -22 -126 -16 -132 6 -6 6 -24 0 -46 -10 -38 -28 -120 -30 -137 0 -5 2
-25 6 -42 5 -23 4 -33 -4 -33 -7 0 -10 -7 -7 -15 4 -8 2 -17 -3 -20 -4 -3 -8
-25 -8 -49 0 -24 -6 -54 -12 -66 -7 -12 -10 -34 -7 -49 3 -14 -1 -60 -8 -101
-7 -41 -13 -111 -14 -155 -2 -76 -5 -105 -31 -275 -13 -88 -28 -140 -40 -140
-11 0 -5 87 9 123 8 22 8 27 -4 27 -11 0 -13 8 -8 33 3 17 9 37 13 42 5 6 11
45 15 88 6 67 5 77 -9 77 -12 0 -16 10 -15 43 1 39 2 40 9 12 l8 -30 2 30 c2
17 2 64 1 105 -2 41 3 89 9 105 13 33 15 52 26 203 4 56 11 102 15 102 5 0 9
15 9 33 0 18 5 38 11 44 7 7 7 22 0 51 -12 43 -5 84 10 60 7 -10 9 -9 9 5 0 9
-4 17 -10 17 -5 0 -10 10 -10 23 0 15 3 18 9 9 7 -13 20 91 26 214 1 28 7 66
13 85 22 72 42 204 32 207 -5 2 -10 11 -10 19 0 9 6 13 14 10 12 -5 14 2 12
31 -2 33 2 65 17 128 3 11 8 47 11 80 15 146 30 249 39 255 5 3 11 39 13 80 3
41 9 94 14 119 5 25 12 80 16 123 3 42 10 77 14 77 4 0 10 21 13 48 7 53 20
115 37 182 18 69 19 70 31 70 7 0 9 -15 4 -48z m1145 -3 c0 -5 -4 -9 -10 -9
-5 0 -10 7 -10 16 0 8 5 12 10 9 6 -3 10 -10 10 -16z m42 -21 c-9 -9 -15 -9
-24 0 -9 9 -7 12 12 12 19 0 21 -3 12 -12z m79 -141 c22 -6 26 -27 4 -27 -16
0 -36 31 -34 52 1 7 3 6 6 -3 2 -10 13 -19 24 -22z m-26 -76 c-13 -14 -15 -11
-15 29 l0 45 15 -29 c14 -27 14 -31 0 -45z m4150 -28 c3 -16 20 -56 36 -89 36
-77 39 -111 4 -60 -14 20 -25 45 -25 55 0 10 -6 31 -14 47 -19 39 -29 87 -18
80 6 -3 13 -18 17 -33z m-4064 -26 c-8 -8 -11 -7 -11 4 0 20 13 34 18 19 3 -7
-1 -17 -7 -23z m4125 -55 c-11 -10 -14 3 -7 38 l6 35 3 -33 c2 -19 1 -36 -2
-40z m-4121 18 c3 -5 1 -10 -4 -10 -6 0 -11 5 -11 10 0 6 2 10 4 10 3 0 8 -4
11 -10z m4182 -22 c-3 -8 -6 -5 -6 6 -1 11 2 17 5 13 3 -3 4 -12 1 -19z
m-4190 -70 c-3 -8 -6 -5 -6 6 -1 11 2 17 5 13 3 -3 4 -12 1 -19z m4593 12 c0
-5 -5 -10 -11 -10 -5 0 -7 5 -4 10 3 6 8 10 11 10 2 0 4 -4 4 -10z m-70 -24
c0 -8 -4 -17 -9 -21 -12 -7 -24 12 -16 25 9 15 25 12 25 -4z m170 -25 c0 -5
14 -14 30 -21 28 -12 29 -14 13 -25 -10 -7 -21 -11 -25 -9 -5 3 -8 -2 -8 -10
0 -9 -4 -16 -9 -16 -4 0 -8 12 -8 28 0 15 -3 35 -7 45 -5 10 -4 17 3 17 6 0
11 -4 11 -9z m-5705 -21 c3 -5 1 -10 -4 -10 -6 0 -11 5 -11 10 0 6 2 10 4 10
3 0 8 -4 11 -10z m1065 0 c0 -5 -5 -10 -11 -10 -5 0 -7 5 -4 10 3 6 8 10 11
10 2 0 4 -4 4 -10z m4615 -11 c11 -17 -1 -21 -15 -4 -8 9 -8 15 -2 15 6 0 14
-5 17 -11z m-918 -21 c-3 -8 -6 -5 -6 6 -1 11 2 17 5 13 3 -3 4 -12 1 -19z
m1087 -26 c10 -20 11 -34 4 -52 l-10 -25 -15 35 c-9 19 -19 47 -24 62 -7 25
-6 27 12 18 10 -6 25 -23 33 -38z m-72 -4 c-9 -9 -12 -7 -12 12 0 19 3 21 12
12 9 -9 9 -15 0 -24z m-2497 13 c3 -6 26 -13 50 -17 53 -7 78 -34 68 -73 -3
-14 -2 -23 2 -19 10 9 34 -14 28 -28 -2 -7 7 -24 21 -39 14 -15 26 -32 26 -37
0 -5 4 -7 9 -4 10 7 24 -22 16 -33 -6 -10 -35 -7 -60 6 -11 6 -39 14 -62 18
-39 6 -46 4 -74 -25 -20 -19 -35 -28 -41 -22 -11 11 -88 -6 -88 -20 0 -5 5
-19 11 -30 11 -21 12 -21 27 -2 14 18 14 18 8 -7 -4 -18 -1 -31 10 -40 15 -12
9 -15 -42 -25 -36 -8 -65 -9 -76 -3 -9 5 -54 11 -100 14 -84 6 -168 24 -168
36 0 17 -47 16 -83 -1 -43 -21 -57 -19 -57 9 0 19 46 68 56 59 3 -4 27 4 54
18 32 16 52 34 60 54 8 19 26 36 46 45 18 7 38 24 45 37 6 12 13 25 15 27 1 1
19 -13 38 -33 20 -19 44 -39 53 -44 28 -14 68 1 71 26 4 27 28 29 35 2 3 -11
10 -20 16 -20 18 0 13 29 -9 52 -24 26 -25 41 -5 58 8 7 15 25 15 41 0 27 3
29 39 29 22 0 42 -4 46 -9z m2575 -127 c0 -8 -4 -12 -10 -9 -5 3 -10 10 -10
16 0 5 5 9 10 9 6 0 10 -7 10 -16z m-565 -52 c-6 -6 -44 40 -45 52 0 5 11 -4
25 -20 13 -15 22 -30 20 -32z m-122 -27 c-3 -9 -8 -14 -10 -11 -3 3 -2 9 2 15
9 16 15 13 8 -4z m166 -16 c32 -30 40 -48 11 -26 -20 16 -55 57 -48 57 3 0 20
-14 37 -31z m261 -2 c0 -12 -7 -30 -14 -40 -13 -16 -14 -16 -20 8 -7 28 10 69
25 60 5 -4 9 -16 9 -28z m-5943 1 c-3 -8 -6 -5 -6 6 -1 11 2 17 5 13 3 -3 4
-12 1 -19z m2936 7 c4 -8 2 -17 -3 -20 -6 -4 -10 3 -10 14 0 25 6 27 13 6z
m3037 -62 c0 -20 -3 -24 -11 -16 -7 7 -9 19 -6 27 10 24 17 19 17 -11z m140 7
c0 -5 -4 -10 -10 -10 -5 0 -10 5 -10 10 0 6 5 10 10 10 6 0 10 -4 10 -10z
m-59 -53 c-13 -13 -26 -3 -16 12 3 6 11 8 17 5 6 -4 6 -10 -1 -17z m-111 1
c-1 -7 -9 -29 -20 -48 -16 -29 -19 -31 -20 -13 0 12 5 25 10 28 6 3 10 15 10
26 0 10 5 19 10 19 6 0 10 -6 10 -12z m-55 -8 c3 -5 1 -10 -4 -10 -6 0 -11 5
-11 10 0 6 2 10 4 10 3 0 8 -4 11 -10z m-5921 -61 c5 -27 3 -38 -8 -42 -14 -6
-26 30 -26 81 0 23 2 24 14 12 7 -8 17 -31 20 -51z m5816 41 c0 -5 -4 -10 -10
-10 -5 0 -10 5 -10 10 0 6 5 10 10 10 6 0 10 -4 10 -10z m-2773 -16 c-3 -3
-12 -4 -19 -1 -8 3 -5 6 6 6 11 1 17 -2 13 -5z m2562 -46 c0 -46 -2 -50 -11
-30 -6 12 -15 22 -20 22 -14 0 -9 22 10 41 9 10 18 18 20 18 1 1 2 -23 1 -51z
m41 28 c0 -3 -4 -8 -10 -11 -5 -3 -10 -1 -10 4 0 6 5 11 10 11 6 0 10 -2 10
-4z m355 -56 c3 -6 -4 -10 -17 -10 -18 0 -20 2 -8 10 19 12 18 12 25 0z
m-5818 -22 c-3 -8 -6 -5 -6 6 -1 11 2 17 5 13 3 -3 4 -12 1 -19z m5677 -38 c7
-24 6 -24 -8 -6 -9 11 -16 27 -16 35 0 21 16 2 24 -29z m131 19 c5 -5 1 -9
-12 -9 -12 0 -28 -3 -37 -6 -11 -4 -16 0 -16 14 0 17 5 20 28 16 15 -3 31 -9
37 -15z m-71 -35 c10 -4 16 -18 16 -39 0 -51 -9 -65 -41 -65 -35 0 -36 6 -4
36 27 25 31 44 13 62 -13 13 -8 15 16 6z m-66 -126 c7 -7 11 -21 11 -32 -1
-17 -2 -18 -6 -3 -5 20 -29 23 -36 5 -2 -7 -4 -1 -4 15 -1 28 15 35 35 15z
m82 -130 c0 -5 -4 -8 -10 -8 -5 0 -10 7 -10 15 0 9 -6 18 -14 21 -17 7 -28 32
-20 46 6 9 53 -57 54 -74z m-135 52 c-3 -5 -14 -10 -23 -10 -15 0 -15 2 -2 10
20 13 33 13 25 0z m-15 -54 c0 -15 -46 -86 -56 -86 -7 0 -21 -3 -31 -6 -13 -4
-14 -3 -5 3 7 6 12 16 10 24 -2 9 4 13 17 11 15 -2 24 6 32 28 6 16 16 30 22
30 6 0 11 -2 11 -4z m24 -77 c-8 -13 -21 -11 -27 5 -4 10 0 12 14 9 10 -3 16
-9 13 -14z m-184 -53 c0 -3 -4 -8 -10 -11 -5 -3 -10 -1 -10 4 0 6 5 11 10 11
6 0 10 -2 10 -4z m104 -32 c20 -19 21 -44 2 -44 -14 0 -26 21 -26 46 0 18 5
18 24 -2z m-5814 -44 c0 -5 -2 -10 -4 -10 -3 0 -8 5 -11 10 -3 6 -1 10 4 10 6
0 11 -4 11 -10z m4687 -34 c15 -13 25 -27 21 -31 -4 -4 -21 7 -38 24 -37 36
-24 42 17 7z m-4820 -8 c-3 -8 -6 -5 -6 6 -1 11 2 17 5 13 3 -3 4 -12 1 -19z
m4853 18 c0 -3 -4 -8 -10 -11 -5 -3 -10 -1 -10 4 0 6 5 11 10 11 6 0 10 -2 10
-4z m89 -12 c6 4 11 2 11 -3 0 -6 -9 -11 -20 -11 -12 0 -20 7 -20 18 0 13 2
14 9 3 5 -7 14 -10 20 -7z m591 6 c13 -8 13 -10 -2 -10 -9 0 -20 5 -23 10 -8
13 5 13 25 0z m-830 -20 c0 -5 -4 -10 -10 -10 -5 0 -10 5 -10 10 0 6 5 10 10
10 6 0 10 -4 10 -10z m99 -62 l-2 -23 -4 23 c-3 13 -11 26 -19 29 -8 3 -14 12
-14 21 0 12 4 11 20 -6 11 -12 19 -31 19 -44z m91 40 c0 -19 -2 -20 -10 -8
-13 19 -13 30 0 30 6 0 10 -10 10 -22z m752 -20 c-7 -7 -12 -8 -12 -2 0 14 12
26 19 19 2 -3 -1 -11 -7 -17z m-972 -25 c0 -30 -9 -27 -15 6 -2 11 0 21 6 21
5 0 9 -12 9 -27z m1055 -18 c12 -4 15 -9 8 -12 -7 -2 -28 7 -48 20 -23 16 -32
27 -23 30 7 2 20 -3 28 -13 8 -9 24 -21 35 -25z m50 -54 c-6 -5 -25 10 -25 20
0 5 6 4 14 -3 8 -7 12 -15 11 -17z m-2595 -61 c0 -5 -2 -10 -4 -10 -3 0 -8 5
-11 10 -3 6 -1 10 4 10 6 0 11 -4 11 -10z m1678 -15 c14 -31 16 -65 3 -65 -5
0 -12 12 -15 28 -4 15 -9 35 -12 45 -8 27 11 20 24 -8z m-1848 -35 c0 -5 -5
-10 -11 -10 -5 0 -7 5 -4 10 3 6 8 10 11 10 2 0 4 -4 4 -10z m3000 -52 c0 -5
-4 -7 -9 -3 -5 3 -11 -3 -13 -12 -4 -16 -5 -16 -15 2 -10 17 -8 20 13 21 13 1
24 -2 24 -8z m28 -87 c3 -8 -1 -12 -9 -9 -7 2 -15 10 -17 17 -3 8 1 12 9 9 7
-2 15 -10 17 -17z m-3248 -35 c0 -3 -4 -8 -10 -11 -5 -3 -10 -1 -10 4 0 6 5
11 10 11 6 0 10 -2 10 -4z m1839 -80 c12 -18 21 -40 21 -47 -1 -22 -50 39 -50
62 0 27 5 24 29 -15z m-469 -11 c0 -8 -2 -15 -4 -15 -2 0 -6 7 -10 15 -3 8 -1
15 4 15 6 0 10 -7 10 -15z m-3793 -77 c-2 -13 -4 -3 -4 22 0 25 2 35 4 23 2
-13 2 -33 0 -45z m4533 13 c0 -5 -7 -14 -15 -21 -12 -10 -15 -10 -15 2 0 8 3
18 7 21 9 10 23 9 23 -2z m-16 -116 c-4 -8 -10 -15 -14 -15 -4 0 -13 7 -20 15
-11 13 -8 15 13 15 19 0 25 -4 21 -15z m1054 -34 c2 -12 -3 -24 -12 -27 -11
-4 -16 -19 -16 -46 0 -35 -2 -39 -22 -36 -17 2 -24 11 -26 31 -2 16 1 34 6 40
5 7 13 29 16 50 7 37 8 38 29 24 12 -8 23 -24 25 -36z m-356 -70 c20 -6 47
-20 60 -31 l23 -19 -31 -6 c-17 -4 -53 -24 -80 -44 -46 -35 -49 -40 -49 -82 0
-44 -34 -107 -49 -92 -3 4 3 16 14 28 19 21 19 21 -5 48 -27 28 -43 27 -94 -5
-16 -10 -25 -10 -39 -2 -18 12 -19 26 -7 57 5 11 3 17 -6 17 -8 0 -25 9 -39
19 -18 14 -21 22 -13 33 16 20 12 48 -8 48 -33 0 -31 20 3 35 39 18 259 15
320 -4z m-2814 -198 c21 -16 32 -33 32 -49 0 -19 8 -29 36 -40 30 -13 38 -13
45 -2 7 9 11 10 17 2 4 -6 21 -19 39 -28 38 -19 44 -27 49 -69 3 -18 9 -62 15
-98 12 -74 -1 -226 -28 -338 -14 -59 -66 -151 -85 -151 -4 0 -8 -7 -8 -16 0
-23 -67 -87 -81 -78 -9 5 -10 1 -7 -14 4 -12 2 -25 -3 -28 -5 -3 -9 7 -9 21 0
15 -4 24 -10 20 -5 -3 -10 2 -10 12 0 15 -2 16 -10 3 -9 -13 -10 -13 -10 0 0
8 -5 87 -10 175 -12 200 -21 735 -12 766 5 20 7 16 12 -19 5 -33 14 -50 38
-69z m-2868 12 c0 -14 -4 -25 -10 -25 -5 0 -10 11 -10 25 0 14 5 25 10 25 6 0
10 -11 10 -25z m300 -5 c9 -18 8 -20 -15 -20 -36 0 -34 26 2 39 1 1 7 -8 13
-19z m2921 -548 l5 -257 3 240 c2 176 5 233 13 215 25 -63 16 -696 -11 -723
-8 -8 -11 -3 -12 19 0 16 -5 38 -10 49 -7 14 -8 2 -4 -40 4 -57 4 -59 -10 -33
-12 22 -13 42 -3 132 11 93 10 113 -5 159 -23 73 -46 454 -27 442 6 -4 10 5
10 19 0 23 28 51 40 39 3 -2 8 -120 11 -261z m1846 176 c-3 -7 -5 -2 -5 12 0
14 2 19 5 13 2 -7 2 -19 0 -25z m-5077 -23 c0 -14 -4 -25 -10 -25 -5 0 -10 11
-10 25 0 14 5 25 10 25 6 0 10 -11 10 -25z m-50 -20 c0 -8 -4 -15 -10 -15 -5
0 -7 7 -4 15 4 8 8 15 10 15 2 0 4 -7 4 -15z m-10 -55 c0 -5 -4 -10 -10 -10
-5 0 -10 5 -10 10 0 6 5 10 10 10 6 0 10 -4 10 -10z m5180 -218 c0 -15 -2 -15
-10 -2 -13 20 -13 33 0 25 6 -3 10 -14 10 -23z m-2333 -368 c-3 -3 -1 -17 4
-31 7 -19 6 -24 -3 -20 -18 5 -19 57 -1 57 4 0 4 -3 0 -6z m-7 -111 c0 -15 -3
-23 -7 -19 -11 10 -11 56 -1 50 4 -3 8 -17 8 -31z m2424 -20 c9 -25 14 -49 11
-51 -5 -5 -21 33 -31 73 -11 43 3 27 20 -22z"/>
<path d="M4772 7358 c-18 -18 -14 -29 18 -68 l30 -34 23 23 22 23 -22 15 c-13
9 -23 21 -23 28 0 7 -7 16 -16 19 -20 8 -18 8 -32 -6z"/>
<path d="M4720 7307 c0 -9 12 -28 28 -44 15 -16 34 -39 42 -51 8 -13 17 -17
21 -11 3 6 -9 25 -27 43 -19 18 -34 38 -34 43 0 6 -7 16 -15 23 -12 10 -15 10
-15 -3z"/>
<path d="M4549 7266 c9 -11 9 -15 -1 -18 -10 -4 -9 -8 3 -21 14 -14 19 -14 35
-2 25 19 40 19 25 1 -13 -16 2 -32 19 -21 14 8 13 45 -1 45 -6 0 -9 7 -5 15 3
9 0 15 -9 15 -8 0 -15 -5 -15 -12 0 -9 -3 -9 -12 0 -7 7 -21 12 -31 12 -16 0
-17 -3 -8 -14z"/>
<path d="M4875 7249 c-4 -6 -5 -12 -2 -15 2 -3 7 2 10 11 7 17 1 20 -8 4z"/>
<path d="M5259 7228 c-14 -35 0 -58 21 -33 15 18 55 21 44 3 -4 -7 2 -5 12 5
18 17 18 18 -6 35 -37 26 -57 23 -71 -10z"/>
<path d="M4900 7230 c0 -5 7 -10 16 -10 8 0 12 5 9 10 -3 6 -10 10 -16 10 -5
0 -9 -4 -9 -10z"/>
<path d="M5047 7206 c-3 -8 -19 -17 -36 -21 -22 -5 -31 -12 -31 -26 0 -10 4
-19 9 -19 5 0 14 -12 19 -27 9 -24 11 -25 11 -7 1 12 8 27 16 34 8 7 14 18 14
24 -1 6 1 19 6 29 4 10 5 20 2 23 -2 3 -7 -2 -10 -10z"/>
<path d="M4700 7128 c0 -7 -3 -24 -6 -38 -5 -23 -5 -23 10 4 18 33 20 46 6 46
-5 0 -10 -6 -10 -12z"/>
<path d="M5584 6767 c-3 -9 -4 -23 -2 -32 2 -13 6 -14 20 -3 15 11 15 15 3 32
-13 17 -15 17 -21 3z"/>
<path d="M1619 6496 c-2 -3 -3 -24 0 -48 l4 -43 8 35 c7 32 -1 67 -12 56z"/>
<path d="M1666 6415 c-3 -8 -1 -15 4 -15 6 0 10 7 10 15 0 8 -2 15 -4 15 -2 0
-6 -7 -10 -15z"/>
<path d="M5450 6601 c0 -5 5 -13 10 -16 6 -3 10 -2 10 4 0 5 -4 13 -10 16 -5
3 -10 2 -10 -4z"/>
<path d="M4065 6060 c3 -5 8 -10 11 -10 2 0 4 5 4 10 0 6 -5 10 -11 10 -5 0
-7 -4 -4 -10z"/>
<path d="M4074 6029 c-10 -17 10 -29 23 -14 10 10 9 14 -2 19 -8 3 -17 0 -21
-5z"/>
<path d="M3235 5560 c-8 -13 4 -32 16 -25 12 8 12 35 0 35 -6 0 -13 -4 -16
-10z"/>
<path d="M3910 4465 c0 -8 2 -15 4 -15 2 0 6 7 10 15 3 8 1 15 -4 15 -6 0 -10
-7 -10 -15z"/>
<path d="M3140 4304 c0 -8 5 -12 10 -9 6 3 10 10 10 16 0 5 -4 9 -10 9 -5 0
-10 -7 -10 -16z"/>
<path d="M5363 4075 c0 -8 4 -12 9 -9 5 3 6 10 3 15 -9 13 -12 11 -12 -6z"/>
<path d="M5345 3970 c-3 -5 -1 -10 4 -10 6 0 11 5 11 10 0 6 -2 10 -4 10 -3 0
-8 -4 -11 -10z"/>
<path d="M5460 3560 c0 -11 7 -20 15 -20 8 0 15 9 15 20 0 11 -7 20 -15 20 -8
0 -15 -9 -15 -20z"/>
<path d="M3716 3541 c-22 -25 -6 -37 59 -44 28 -3 65 -9 83 -12 26 -6 32 -4
32 9 0 9 -11 28 -25 41 -31 32 -122 36 -149 6z"/>
<path d="M5620 3345 c0 -8 5 -15 10 -15 6 0 10 7 10 15 0 8 -4 15 -10 15 -5 0
-10 -7 -10 -15z"/>
<path d="M5610 3294 c0 -8 5 -12 10 -9 6 3 10 10 10 16 0 5 -4 9 -10 9 -5 0
-10 -7 -10 -16z"/>
<path d="M4164 2686 c-9 -37 -28 -50 -52 -35 -11 7 -27 9 -36 6 -22 -9 -21
-47 2 -47 10 0 26 -6 36 -13 17 -12 17 -18 6 -53 -20 -61 -22 -96 -4 -115 10
-12 14 -34 13 -73 -2 -42 2 -61 14 -74 13 -13 17 -13 17 -2 0 9 5 8 15 -6 17
-23 20 -5 3 31 -15 34 -3 43 20 15 17 -21 18 -21 32 -4 8 11 11 16 6 12 -4 -4
-19 5 -32 19 -27 29 -33 83 -9 83 16 0 45 49 45 75 0 9 -7 27 -16 40 -16 24
-12 65 7 65 17 0 9 49 -10 60 -11 5 -26 17 -35 25 -14 14 -16 13 -22 -9z"/>
<path d="M4086 2564 c-8 -22 -4 -25 11 -9 7 8 9 16 4 19 -5 3 -12 -1 -15 -10z"/>
<path d="M1260 5400 c0 -22 5 -40 10 -40 6 0 10 18 10 40 0 22 -4 40 -10 40
-5 0 -10 -18 -10 -40z"/>
<path d="M1120 4789 c0 -5 5 -7 10 -4 6 3 10 8 10 11 0 2 -4 4 -10 4 -5 0 -10
-5 -10 -11z"/>
<path d="M1105 4347 c-4 -10 -5 -21 -1 -24 10 -10 18 4 13 24 -4 17 -4 17 -12
0z"/>
<path d="M1000 4260 c0 -11 5 -20 10 -20 6 0 10 9 10 20 0 11 -4 20 -10 20 -5
0 -10 -9 -10 -20z"/>
<path d="M405 1670 c3 -5 8 -10 11 -10 2 0 4 5 4 10 0 6 -5 10 -11 10 -5 0 -7
-4 -4 -10z"/>
<path d="M4005 2950 c4 -6 11 -8 16 -5 14 9 11 15 -7 15 -8 0 -12 -5 -9 -10z"/>
<path d="M6814 7753 c-9 -107 -10 -300 0 -330 5 -15 14 -20 32 -18 13 1 27 -1
29 -5 3 -5 23 -6 45 -3 25 4 40 2 40 -5 0 -6 28 -12 63 -15 34 -3 132 -12 217
-20 179 -19 360 -22 360 -7 0 6 6 10 14 10 7 0 19 6 25 14 7 8 25 18 41 21 30
7 67 40 53 48 -4 2 -44 8 -88 11 -262 23 -536 63 -450 65 11 1 38 19 60 41 22
21 45 39 52 40 6 0 14 9 18 19 3 11 15 23 26 26 30 10 91 77 78 86 -8 4 -7 8
2 12 8 4 -15 6 -51 6 -36 0 -99 2 -140 6 -41 4 -95 7 -120 8 -50 2 -243 48
-248 59 -2 4 -10 4 -18 1 -8 -3 -14 0 -14 6 0 6 -4 11 -9 11 -5 0 -13 -39 -17
-87z"/>
<path d="M6812 7288 c3 -20 10 -23 63 -26 80 -4 97 -22 22 -22 -31 0 -57 -4
-57 -9 0 -11 35 -18 88 -17 23 1 42 -2 42 -6 0 -5 11 -8 24 -8 30 0 36 -16 36
-96 0 -36 4 -64 10 -64 6 0 10 27 10 60 0 76 16 114 44 105 12 -3 89 -5 171
-3 152 3 530 -1 663 -7 39 -2 72 0 72 5 0 12 -266 40 -525 55 -55 3 -145 10
-200 15 -55 5 -161 14 -235 20 -74 6 -157 13 -183 16 -45 4 -48 2 -45 -18z"/>
<path d="M6815 7230 c3 -5 8 -10 11 -10 2 0 4 5 4 10 0 6 -5 10 -11 10 -5 0
-7 -4 -4 -10z"/>
<path d="M6807 6894 c-4 -4 -7 -81 -7 -171 0 -127 3 -164 13 -161 8 3 15 51
21 157 7 128 6 155 -6 167 -8 8 -17 11 -21 8z"/>
<path d="M7417 6894 c-9 -9 -9 -168 0 -177 3 -4 15 0 25 10 14 12 18 31 18 84
0 44 4 69 13 72 7 4 6 6 -5 6 -9 1 -23 3 -30 6 -8 3 -17 2 -21 -1z"/>
<path d="M7021 6861 c-6 -11 -11 -81 -11 -164 0 -124 3 -148 18 -167 17 -21
19 -21 32 -5 12 14 15 53 15 184 0 163 0 166 -22 169 -14 2 -26 -4 -32 -17z"/>
<path d="M6150 6785 c0 -5 5 -17 10 -25 5 -8 10 -10 10 -5 0 6 -5 17 -10 25
-5 8 -10 11 -10 5z"/>
<path d="M6180 6686 c0 -8 4 -17 9 -20 5 -4 7 3 4 14 -6 23 -13 26 -13 6z"/>
<path d="M7415 6423 c3 -148 7 -447 9 -666 3 -258 8 -403 15 -411 6 -7 8 -16
4 -19 -3 -4 1 -7 10 -7 13 0 14 6 7 29 -4 16 -6 32 -2 35 3 3 -1 24 -8 47 -12
37 -12 45 3 72 10 16 15 32 12 35 -3 3 -5 0 -5 -6 0 -7 -4 -12 -10 -12 -5 0
-10 9 -10 20 0 11 5 20 10 20 6 0 10 20 10 45 0 25 -5 45 -10 45 -10 0 -5 154
6 171 2 4 -1 19 -8 34 -9 21 -8 32 5 61 21 44 22 106 1 150 -13 27 -14 37 -5
48 20 24 26 120 9 154 -13 25 -13 33 -2 53 19 34 18 149 -1 176 -11 16 -12 22
-2 26 18 6 15 146 -4 158 -38 24 -39 19 -34 -258z"/>
<path d="M6180 6642 c0 -14 40 -82 48 -82 4 0 18 -3 32 -6 21 -5 22 -4 8 6
-10 6 -18 18 -18 27 0 13 3 13 15 3 8 -7 15 -8 15 -2 0 5 -16 22 -35 36 -19
15 -35 22 -35 15 0 -8 -4 -8 -15 1 -9 8 -15 9 -15 2z"/>
<path d="M6141 6424 c0 -11 3 -14 6 -6 3 7 2 16 -1 19 -3 4 -6 -2 -5 -13z"/>
<path d="M6098 6319 c-3 -8 0 -26 8 -40 12 -21 13 -22 13 -4 0 11 -4 29 -8 39
-6 16 -9 17 -13 5z"/>
<path d="M6510 6190 c0 -5 5 -10 11 -10 5 0 7 5 4 10 -3 6 -8 10 -11 10 -2 0
-4 -4 -4 -10z"/>
<path d="M6577 6171 c-4 -17 -3 -21 5 -13 5 5 8 16 6 23 -3 8 -7 3 -11 -10z"/>
<path d="M6122 6168 c-24 -24 -9 -88 21 -88 5 0 4 7 -3 15 -8 9 -10 29 -7 50
6 39 6 40 -11 23z"/>
<path d="M6591 6134 c0 -11 3 -14 6 -6 3 7 2 16 -1 19 -3 4 -6 -2 -5 -13z"/>
<path d="M6517 6103 c3 -13 9 -23 14 -23 5 0 9 -10 9 -22 0 -12 3 -19 6 -15 4
3 14 -1 22 -10 12 -12 17 -12 20 -3 4 11 -7 23 -33 34 -6 3 -3 10 5 16 13 10
13 11 0 7 -8 -2 -22 6 -32 17 l-17 21 6 -22z"/>
<path d="M6040 6070 c0 -11 2 -20 4 -20 2 0 6 9 9 20 3 11 1 20 -4 20 -5 0 -9
-9 -9 -20z"/>
<path d="M6142 6050 c0 -14 2 -19 5 -12 2 6 2 18 0 25 -3 6 -5 1 -5 -13z"/>
<path d="M5959 6053 c-18 -4 -29 -33 -28 -73 0 -20 3 -17 14 15 7 22 13 33 14
25 1 -12 4 -11 18 3 19 19 8 36 -18 30z"/>
<path d="M6630 5956 c0 -8 -6 -16 -13 -19 -19 -7 -21 -73 -2 -81 12 -4 14 -15
9 -44 -5 -31 -1 -44 18 -68 13 -16 29 -40 35 -54 6 -14 18 -41 27 -61 9 -20
18 -75 20 -122 4 -83 5 -88 37 -117 40 -36 53 -20 15 19 -28 29 -36 64 -12 55
19 -7 27 41 14 99 -5 26 -13 45 -16 43 -4 -2 -14 1 -23 8 -12 8 -17 27 -16 66
0 62 -15 133 -32 153 -9 11 -8 17 4 27 13 11 13 15 3 21 -7 5 -21 6 -31 3 -22
-7 -36 24 -16 37 11 7 11 9 1 9 -9 0 -11 7 -7 20 4 11 2 20 -4 20 -6 0 -11 -6
-11 -14z"/>
<path d="M6810 5915 c13 -16 4 -39 -12 -29 -7 4 -8 2 -4 -4 4 -7 23 -12 42
-12 22 0 37 -6 40 -15 4 -8 11 -15 18 -15 6 0 -11 21 -38 45 -49 45 -69 58
-46 30z"/>
<path d="M6917 5804 c8 -21 72 -88 78 -82 7 6 -40 68 -64 85 -19 12 -20 12
-14 -3z"/>
<path d="M6350 5773 c0 -6 7 -24 15 -39 12 -23 15 -25 15 -9 -1 11 -7 29 -15
39 -8 11 -15 15 -15 9z"/>
<path d="M7010 5714 c0 -3 7 -12 15 -20 16 -17 18 -14 9 10 -6 15 -24 23 -24
10z"/>
<path d="M6030 5683 c0 -4 5 -15 10 -23 8 -13 10 -13 10 2 0 9 -4 20 -10 23
-5 3 -10 3 -10 -2z"/>
<path d="M6640 5685 c0 -18 19 -40 26 -32 4 4 0 15 -9 24 -9 10 -17 13 -17 8z"/>
<path d="M6465 5545 c4 -11 10 -28 12 -37 3 -10 10 -15 15 -12 6 4 8 -4 4 -23
-5 -21 -1 -35 14 -53 13 -15 20 -18 21 -9 0 8 4 6 9 -6 12 -28 12 -47 0 -40
-5 3 -10 2 -10 -4 0 -19 19 -21 24 -4 13 40 12 81 0 98 -14 18 -14 18 -14 -1
-1 -12 -8 -5 -21 21 -23 48 -65 102 -54 70z"/>
<path d="M7004 5545 c-9 -25 -60 -75 -68 -68 -3 4 -6 -9 -6 -29 0 -42 7 -50
32 -37 64 34 81 65 63 115 -11 33 -14 36 -21 19z"/>
<path d="M7037 5539 c4 -13 8 -18 11 -10 2 7 -1 18 -6 23 -8 8 -9 4 -5 -13z"/>
<path d="M6790 5445 c0 -23 12 -45 21 -39 5 3 9 -1 9 -9 0 -8 7 -20 15 -27 10
-9 15 -9 15 -1 0 6 7 11 15 11 14 0 14 3 1 29 -17 32 -76 60 -76 36z"/>
<path d="M6876 5437 c3 -10 9 -15 12 -12 3 3 0 11 -7 18 -10 9 -11 8 -5 -6z"/>
<path d="M6912 5410 c0 -14 2 -19 5 -12 2 6 2 18 0 25 -3 6 -5 1 -5 -13z"/>
<path d="M6590 5368 c0 -9 5 -20 10 -23 13 -8 13 5 0 25 -8 13 -10 13 -10 -2z"/>
<path d="M6670 5360 c0 -5 5 -10 11 -10 5 0 7 5 4 10 -3 6 -8 10 -11 10 -2 0
-4 -4 -4 -10z"/>
<path d="M7194 5322 c-6 -4 -13 -15 -17 -24 -7 -21 -27 -24 -27 -5 0 8 -7 14
-15 14 -8 0 -15 -4 -15 -9 0 -4 -8 -8 -17 -8 -10 0 -53 -34 -95 -75 l-77 -74
22 -28 21 -28 -22 19 c-12 11 -25 16 -29 12 -8 -8 31 -43 89 -81 39 -26 84
-33 90 -14 2 5 22 12 46 15 38 4 42 3 42 -16 0 -12 5 -18 10 -15 11 7 13 54 4
79 -3 9 -15 16 -25 16 -10 0 -19 4 -19 9 0 5 -8 11 -19 14 -15 3 -18 0 -14
-17 4 -17 3 -18 -6 -6 -15 22 -13 56 4 70 8 7 15 19 15 27 0 20 57 76 70 68 5
-3 9 9 8 30 -1 36 -5 40 -24 27z m-142 -266 c-3 -5 -10 6 -17 25 -6 19 -9 38
-7 43 3 5 10 -6 17 -25 6 -19 9 -38 7 -43z"/>
<path d="M7240 5280 c-9 -6 -10 -10 -3 -10 6 0 15 5 18 10 8 12 4 12 -15 0z"/>
<path d="M6527 5207 c-4 -10 2 -45 13 -77 11 -33 20 -64 20 -70 0 -20 74 -169
81 -164 5 3 11 -8 14 -23 10 -47 46 -134 83 -202 20 -37 31 -66 25 -68 -7 -3
-7 -14 1 -38 14 -40 21 -48 41 -51 12 -2 12 2 4 17 -5 11 -14 17 -18 14 -8 -4
-20 25 -21 48 0 18 22 4 31 -20 10 -27 186 -203 203 -203 14 0 -3 50 -46 140
-33 69 -42 81 -48 65 -4 -11 -5 -33 -2 -50 2 -16 2 -27 -2 -23 -5 3 -9 23 -11
43 -4 37 -73 190 -107 234 -10 13 -18 31 -18 39 0 20 -82 182 -92 182 -4 0 -8
9 -8 20 0 11 -5 20 -11 20 -5 0 -7 5 -4 10 8 13 -4 72 -14 66 -4 -3 -13 0 -21
5 -12 8 -12 12 -2 16 17 7 15 23 -4 44 -14 15 -18 16 -30 4 -8 -7 -14 -24 -14
-36 0 -32 -13 -14 -25 34 -8 32 -13 38 -18 24z m91 -104 c6 -19 -33 -16 -49 3
-11 14 -9 15 16 12 16 -1 30 -9 33 -15z m16 -68 c-4 -8 -11 -12 -16 -9 -6 4
-5 10 3 15 19 12 19 11 13 -6z"/>
<path d="M6410 5166 c0 -8 5 -18 10 -21 6 -3 10 1 10 9 0 8 -4 18 -10 21 -5 3
-10 -1 -10 -9z"/>
<path d="M6772 5106 c7 -8 15 -12 17 -11 5 6 -10 25 -20 25 -5 0 -4 -6 3 -14z"/>
<path d="M7146 4995 c-3 -9 0 -15 9 -15 16 0 20 16 6 24 -5 3 -11 -1 -15 -9z"/>
<path d="M6744 4958 c7 -35 32 -68 53 -68 20 0 16 12 -15 45 -26 27 -27 31
-13 42 14 11 13 12 -8 13 -21 0 -23 -3 -17 -32z"/>
<path d="M7126 4963 c6 -4 14 -15 17 -23 5 -11 6 -9 4 4 -1 11 -9 21 -17 23
-10 3 -11 2 -4 -4z"/>
<path d="M6805 4950 c3 -5 11 -10 16 -10 6 0 7 5 4 10 -3 6 -11 10 -16 10 -6
0 -7 -4 -4 -10z"/>
<path d="M6860 4941 c0 -5 -3 -16 -6 -25 -4 -11 0 -16 14 -16 24 0 38 30 20
42 -17 10 -28 10 -28 -1z"/>
<path d="M7140 4881 c0 -5 5 -13 10 -16 6 -3 10 -2 10 4 0 5 -4 13 -10 16 -5
3 -10 2 -10 -4z"/>
<path d="M7432 4870 c0 -14 2 -19 5 -12 2 6 2 18 0 25 -3 6 -5 1 -5 -13z"/>
<path d="M6800 4873 c0 -13 69 -155 169 -348 25 -49 55 -115 66 -145 14 -39
28 -59 47 -68 18 -8 25 -18 21 -28 -5 -13 -7 -13 -23 1 -9 8 -22 15 -28 15
-15 0 -16 -92 -1 -107 14 -14 49 -5 49 12 0 7 7 15 15 19 8 3 15 13 15 23 0
13 3 14 12 5 7 -7 26 -12 43 -12 53 0 58 -10 56 -99 -2 -91 -7 -111 -27 -111
-8 0 -14 -5 -14 -11 0 -6 -19 -29 -42 -52 -34 -33 -44 -38 -59 -29 -10 7 -25
9 -34 6 -8 -3 -15 -1 -15 5 0 6 -10 11 -22 11 -12 0 -30 7 -40 16 -17 16 -17
18 0 30 16 12 14 15 -15 42 -39 34 -41 41 -10 35 18 -4 25 2 35 31 7 20 10 40
7 46 -3 5 -1 10 4 10 18 0 12 25 -11 56 l-23 29 29 -19 29 -18 -5 51 c-3 29
-10 57 -16 63 -7 7 -9 -2 -6 -33 l4 -44 -15 35 c-23 52 -30 63 -45 68 -9 3
-11 -1 -7 -12 9 -23 0 -20 -29 11 -27 29 -39 24 -49 -19 -5 -21 -1 -33 19 -53
14 -14 26 -31 26 -38 0 -26 -70 64 -110 143 -24 47 -50 93 -59 103 -9 11 -16
26 -16 35 0 8 -4 17 -10 19 -6 2 -11 -18 -11 -44 -1 -27 -5 -88 -9 -138 -6
-70 -4 -107 10 -167 9 -43 21 -76 25 -73 12 8 33 -23 24 -36 -5 -9 -2 -10 10
-6 10 4 20 7 22 7 2 0 4 7 4 15 0 8 7 15 16 15 11 0 14 -6 8 -22 -3 -13 -7
-23 -8 -23 0 0 -10 -5 -21 -11 -28 -15 -31 -50 -6 -66 12 -7 21 -17 21 -23 0
-13 40 -48 47 -42 2 3 -3 22 -11 42 -11 26 -20 35 -31 31 -10 -4 -15 1 -15 15
0 11 5 17 10 14 6 -3 10 1 10 10 0 13 7 11 32 -10 32 -27 33 -27 38 -7 3 15 9
19 19 13 10 -7 11 -13 2 -30 -9 -16 -9 -26 0 -42 8 -15 8 -24 0 -32 -8 -8 -11
-7 -11 5 0 9 -7 18 -15 22 -18 7 -19 -7 -3 -37 16 -32 38 -45 69 -43 17 1 25
-2 22 -10 -2 -6 8 -15 23 -18 15 -4 34 -15 41 -24 7 -9 13 -12 13 -5 0 11 55
29 73 25 10 -3 107 43 132 63 19 15 19 17 2 47 -10 17 -15 33 -11 37 4 3 9 1
11 -5 2 -6 10 -20 18 -30 13 -19 14 -19 29 1 26 34 41 104 46 218 0 5 5 5 10
2 17 -11 11 3 -14 30 l-24 26 -4 -41 c-2 -26 1 -45 9 -52 23 -18 16 -38 -9
-29 -17 6 -24 17 -25 42 -3 45 -17 97 -37 134 -17 32 -22 80 -7 70 5 -3 12 4
16 15 4 11 10 18 14 16 4 -3 8 7 9 21 1 14 7 32 12 38 6 7 10 38 9 69 -1 32
-5 52 -9 46 -4 -6 -13 -10 -20 -8 -10 2 -16 -11 -20 -39 -7 -48 -20 -69 -20
-32 -1 22 -1 23 -12 5 -8 -14 -8 -24 1 -37 15 -25 13 -78 -3 -108 -12 -21 -13
-12 -12 77 1 66 -2 98 -8 92 -17 -17 -46 -11 -56 13 -9 22 -9 22 -10 -3 -1
-14 -3 -36 -5 -50 -1 -14 -3 -35 -3 -47 -3 -35 -19 -27 -25 12 -7 44 20 134
51 170 20 22 21 29 10 43 -8 12 -5 11 10 -3 20 -16 25 -17 32 -5 16 25 11 66
-10 91 -16 20 -19 21 -20 7 0 -25 -13 -22 -38 6 -19 22 -24 24 -54 13 -18 -6
-53 -24 -77 -40 -31 -20 -46 -25 -51 -17 -6 9 -13 9 -28 1 -27 -14 -32 -14
-32 2 0 8 9 22 20 32 24 21 25 29 7 47 -8 7 -19 23 -26 36 -6 12 -28 29 -48
37 -41 17 -43 18 -43 8z m171 -216 c-16 -16 -26 0 -10 19 9 11 15 12 17 4 2
-6 -1 -17 -7 -23z m90 10 c-13 -13 -26 -3 -16 12 3 6 11 8 17 5 6 -4 6 -10 -1
-17z m-61 -51 c0 -8 -7 -16 -15 -20 -13 -4 -14 -2 -5 14 13 23 20 26 20 6z
m271 -123 c-9 -16 -10 -15 -11 8 0 14 3 29 8 33 12 12 14 -22 3 -41z m-491
-124 c0 -12 11 -32 25 -45 14 -13 25 -27 25 -32 0 -6 7 -12 15 -16 8 -3 15
-11 15 -17 0 -9 -3 -9 -14 0 -8 6 -20 10 -26 9 -7 -2 -17 13 -23 32 -5 19 -12
29 -14 23 -9 -25 -18 -12 -19 27 -1 22 2 40 7 40 5 0 9 -10 9 -21z m370 -44
c0 -19 -4 -36 -9 -39 -5 -4 -9 14 -9 39 1 24 5 42 10 39 4 -3 8 -20 8 -39z
m-360 -83 c0 -13 -4 -20 -10 -17 -5 3 -10 21 -10 38 0 24 3 28 10 17 5 -8 10
-25 10 -38z m460 7 c0 -6 -4 -7 -10 -4 -5 3 -10 11 -10 16 0 6 5 7 10 4 6 -3
10 -11 10 -16z m-385 -79 c-4 -12 -9 -19 -12 -17 -3 3 -2 15 2 27 4 12 9 19
12 17 3 -3 2 -15 -2 -27z m58 -53 c5 -33 4 -36 -10 -22 -10 10 -13 24 -9 41 8
32 12 29 19 -19z"/>
<path d="M7120 4851 c0 -6 4 -13 10 -16 6 -3 7 1 4 9 -7 18 -14 21 -14 7z"/>
<path d="M6601 4794 c0 -11 3 -14 6 -6 3 7 2 16 -1 19 -3 4 -6 -2 -5 -13z"/>
<path d="M7430 4737 c0 -14 5 -29 10 -32 7 -4 8 3 4 22 -9 38 -14 42 -14 10z"/>
<path d="M7224 4698 c4 -18 10 -48 13 -65 6 -36 17 -41 39 -19 18 19 18 46 -1
46 -8 0 -15 9 -15 20 0 13 5 18 15 14 8 -4 15 -2 15 3 0 17 -24 33 -48 33 -22
0 -24 -3 -18 -32z"/>
<path d="M6695 4685 c2 -22 5 -51 5 -65 0 -14 9 -36 20 -50 l19 -25 -6 45 c-3
25 -14 65 -25 90 l-19 45 6 -40z"/>
<path d="M7430 4644 c0 -19 4 -33 8 -30 8 5 4 66 -4 66 -2 0 -4 -16 -4 -36z"/>
<path d="M7391 4575 c0 -5 6 -19 14 -29 8 -11 15 -15 15 -10 0 6 -7 19 -15 30
-8 10 -14 15 -14 9z"/>
<path d="M6653 4520 c0 -30 2 -43 4 -27 2 15 2 39 0 55 -2 15 -4 2 -4 -28z"/>
<path d="M6807 4483 c3 -12 12 -28 19 -34 25 -20 24 -4 -1 26 -21 26 -23 27
-18 8z"/>
<path d="M6850 4478 c14 -14 34 -37 44 -52 10 -14 21 -24 24 -22 6 7 -45 67
-72 85 -16 11 -16 8 4 -11z"/>
<path d="M7305 4430 c3 -5 8 -10 11 -10 2 0 4 5 4 10 0 6 -5 10 -11 10 -5 0
-7 -4 -4 -10z"/>
<path d="M6830 4410 c0 -5 5 -10 11 -10 5 0 7 5 4 10 -3 6 -8 10 -11 10 -2 0
-4 -4 -4 -10z"/>
<path d="M7430 4377 c0 -10 5 -17 10 -17 6 0 10 -7 10 -15 0 -8 5 -15 10 -15
16 0 12 15 -10 40 -16 18 -20 20 -20 7z"/>
<path d="M7344 4320 c14 -101 17 -111 33 -108 22 4 29 28 9 28 -12 0 -16 10
-16 38 0 21 -7 47 -15 58 -15 18 -15 17 -11 -16z"/>
<path d="M7416 4300 c-3 -18 -6 -36 -6 -41 0 -15 15 -10 26 9 9 14 9 24 -1 41
-12 23 -12 23 -19 -9z"/>
<path d="M6631 4270 c0 -19 3 -42 9 -50 17 -26 20 -4 6 41 l-14 44 -1 -35z"/>
<path d="M7030 4158 c0 -18 18 -34 28 -24 3 4 -2 14 -11 23 -16 16 -17 16 -17
1z"/>
<path d="M7020 4104 c0 -8 5 -12 10 -9 6 4 8 11 5 16 -9 14 -15 11 -15 -7z"/>
<path d="M7425 4000 c-4 -41 -13 -88 -21 -104 -23 -48 -16 -44 19 9 33 51 38
93 18 146 -7 19 -10 8 -16 -51z"/>
<path d="M7360 3980 c0 -5 -9 -10 -20 -10 -11 0 -20 -4 -20 -10 0 -5 14 -10
30 -10 23 0 30 4 30 20 0 11 -4 20 -10 20 -5 0 -10 -4 -10 -10z"/>
<path d="M7390 3970 c0 -11 5 -20 10 -20 6 0 10 9 10 20 0 11 -4 20 -10 20 -5
0 -10 -9 -10 -20z"/>
<path d="M7484 3966 c-4 -9 -4 -19 -1 -22 8 -8 295 -9 303 -1 14 13 -2 16
-106 21 -58 3 -124 8 -147 12 -35 5 -44 3 -49 -10z m223 -12 c-3 -3 -12 -4
-19 -1 -8 3 -5 6 6 6 11 1 17 -2 13 -5z"/>
<path d="M6790 3929 c0 -18 6 -28 19 -32 14 -3 17 -11 14 -31 -6 -30 11 -56
38 -56 29 0 26 66 -3 91 -13 10 -28 18 -35 19 -7 0 -17 8 -22 18 -9 15 -10 13
-11 -9z m70 -43 c0 -3 -4 -8 -10 -11 -5 -3 -10 -1 -10 4 0 6 5 11 10 11 6 0
10 -2 10 -4z"/>
<path d="M6554 3872 c3 -6 1 -14 -4 -17 -7 -4 -8 -19 -5 -36 4 -18 3 -29 -4
-29 -6 0 -11 5 -11 10 0 6 -4 10 -10 10 -17 0 -10 -63 10 -100 l20 -35 -6 43
c-6 40 0 50 21 34 13 -9 57 -130 59 -162 3 -46 36 -69 50 -35 4 11 0 15 -11
13 -13 -2 -17 5 -18 35 -1 21 -7 43 -13 49 -7 7 -12 20 -12 31 0 10 -11 33
-25 51 -30 39 -33 56 -5 31 19 -18 20 -17 20 2 0 11 -9 32 -20 46 -11 14 -20
32 -20 40 0 9 -5 19 -12 23 -6 4 -8 3 -4 -4z"/>
<path d="M6900 3806 c0 -9 7 -12 20 -9 11 3 17 9 14 14 -8 14 -34 10 -34 -5z"/>
<path d="M6625 3800 c3 -5 8 -10 11 -10 2 0 4 5 4 10 0 6 -5 10 -11 10 -5 0
-7 -4 -4 -10z"/>
<path d="M6955 3790 c3 -5 10 -10 16 -10 5 0 9 5 9 10 0 6 -7 10 -16 10 -8 0
-12 -4 -9 -10z"/>
<path d="M7010 3781 c0 -5 5 -13 10 -16 6 -3 10 -2 10 4 0 5 -4 13 -10 16 -5
3 -10 2 -10 -4z"/>
<path d="M6964 3716 c-10 -8 -17 -17 -14 -19 3 -3 14 1 24 9 11 7 17 16 15 19
-3 3 -14 -2 -25 -9z"/>
<path d="M6330 3690 c0 -5 7 -10 16 -10 8 0 12 5 9 10 -3 6 -10 10 -16 10 -5
0 -9 -4 -9 -10z"/>
<path d="M6788 3615 c-21 -28 -23 -42 -5 -27 6 5 20 11 30 13 15 3 16 7 5 21
-12 16 -14 15 -30 -7z"/>
<path d="M6500 3604 c0 -8 5 -12 10 -9 6 4 8 11 5 16 -9 14 -15 11 -15 -7z"/>
<path d="M6715 3580 c3 -5 11 -10 16 -10 6 0 7 5 4 10 -3 6 -11 10 -16 10 -6
0 -7 -4 -4 -10z"/>
<path d="M6580 3490 c0 -5 5 -10 10 -10 6 0 10 5 10 10 0 6 -4 10 -10 10 -5 0
-10 -4 -10 -10z"/>
<path d="M7458 3364 c-5 -4 -8 -43 -8 -86 0 -74 1 -78 23 -79 12 0 31 -2 42
-4 33 -5 251 -14 240 -10 -9 4 -196 24 -255 28 -24 2 -25 5 -30 80 -3 44 -8
75 -12 71z"/>
<path d="M7051 3314 c0 -11 3 -14 6 -6 3 7 2 16 -1 19 -3 4 -6 -2 -5 -13z"/>
<path d="M7015 3138 c0 -134 9 -159 39 -114 11 18 13 36 7 82 -5 33 -6 64 -4
70 2 7 0 15 -6 19 -6 3 -11 21 -11 39 0 19 -5 33 -12 33 -10 0 -13 -33 -13
-129z"/>
<path d="M6851 3154 c0 -11 3 -14 6 -6 3 7 2 16 -1 19 -3 4 -6 -2 -5 -13z"/>
<path d="M7450 3149 c0 -11 5 -17 10 -14 6 3 10 13 10 21 0 8 -4 14 -10 14 -5
0 -10 -9 -10 -21z"/>
<path d="M7460 3032 c-3 -41 -2 -76 1 -78 10 -6 224 -17 219 -11 -3 3 -39 8
-80 11 -133 12 -128 9 -132 91 l-3 60 -5 -73z"/>
<path d="M7933 2923 c9 -2 25 -2 35 0 9 3 1 5 -18 5 -19 0 -27 -2 -17 -5z"/>
<path d="M7459 2858 c-1 -65 2 -152 4 -155 4 -3 327 -24 432 -28 159 -6 103 2
-150 21 -195 14 -240 18 -267 23 -4 0 -3 12 2 26 5 13 6 26 2 29 -4 2 -6 34
-6 70 1 37 -2 69 -7 72 -5 3 -9 -23 -10 -58z"/>
<path d="M7461 2557 l-2 -114 47 -7 c26 -3 70 -5 98 -5 l51 2 -65 9 c-112 16
-113 16 -105 41 8 24 8 27 2 110 -2 32 -9 63 -14 68 -8 8 -11 -24 -12 -104z"/>
<path d="M7728 2423 c23 -2 59 -2 80 0 20 2 1 4 -43 4 -44 0 -61 -2 -37 -4z"/>
<path d="M7460 2308 l0 -116 58 -6 c31 -4 104 -9 162 -11 58 -3 134 -7 170
-10 36 -3 84 -7 108 -9 23 -2 42 0 42 4 0 4 -48 10 -107 14 -187 11 -206 13
-308 26 l-100 13 5 56 c6 65 -2 127 -19 144 -8 8 -11 -18 -11 -105z"/>
<path d="M7898 2413 c18 -2 45 -2 60 0 15 2 0 4 -33 4 -33 0 -45 -2 -27 -4z"/>
<path d="M5360 2375 c0 -18 4 -23 15 -19 8 4 15 15 15 25 0 10 -7 19 -15 19
-9 0 -15 -9 -15 -25z"/>
<path d="M5550 2356 c0 -8 5 -18 10 -21 6 -3 10 3 10 14 0 12 -4 21 -10 21 -5
0 -10 -6 -10 -14z"/>
<path d="M7462 2043 l3 -118 55 -2 c94 -4 383 -23 433 -29 28 -4 47 -2 47 4 0
6 -51 13 -117 16 -160 9 -370 30 -378 38 -2 2 -5 35 -8 75 -3 40 -9 78 -13 84
-4 8 -3 9 4 5 7 -4 12 -4 12 1 -1 11 -26 43 -34 43 -4 0 -6 -53 -4 -117z"/>
<path d="M3500 2024 c0 -8 5 -12 10 -9 6 4 8 11 5 16 -9 14 -15 11 -15 -7z"/>
<path d="M7460 1791 c0 -89 3 -123 13 -125 6 -2 111 -9 232 -15 121 -7 237
-14 258 -17 21 -3 37 -2 37 4 0 5 -48 12 -107 16 -139 8 -314 26 -333 34 -8 3
-19 6 -25 7 -29 2 -35 19 -35 99 0 70 -3 86 -20 101 -20 18 -20 17 -20 -104z"/>
<path d="M6350 1833 c0 -16 23 -53 32 -52 10 0 10 2 1 6 -17 6 -16 23 2 37 13
9 11 11 -10 11 -14 0 -25 -1 -25 -2z"/>
<path d="M5250 1700 c0 -5 5 -10 11 -10 5 0 7 5 4 10 -3 6 -8 10 -11 10 -2 0
-4 -4 -4 -10z"/>
<path d="M7464 1515 c1 -63 1 -115 1 -115 0 -2 444 -30 483 -30 46 0 52 2 52
21 0 18 -3 20 -27 13 -32 -10 -303 -7 -408 4 -63 6 -70 9 -66 27 2 11 4 52 4
91 1 67 -11 104 -33 104 -4 0 -7 -52 -6 -115z"/>
<path d="M7823 1413 c9 -2 25 -2 35 0 9 3 1 5 -18 5 -19 0 -27 -2 -17 -5z"/>
<path d="M5280 1329 c0 -5 5 -7 10 -4 6 3 10 8 10 11 0 2 -4 4 -10 4 -5 0 -10
-5 -10 -11z"/>
<path d="M6481 814 c0 -11 3 -14 6 -6 3 7 2 16 -1 19 -3 4 -6 -2 -5 -13z"/>
<path d="M6213 655 c0 -33 2 -45 4 -27 2 18 2 45 0 60 -2 15 -4 0 -4 -33z"/>
<path d="M6521 654 c0 -11 3 -14 6 -6 3 7 2 16 -1 19 -3 4 -6 -2 -5 -13z"/>
<path d="M6501 608 c-1 -35 -21 -67 -21 -34 0 27 -20 18 -31 -14 -6 -16 -19
-32 -30 -35 -10 -4 -19 -15 -19 -26 0 -16 -7 -19 -40 -19 -38 0 -40 -1 -40
-32 -1 -18 -9 -58 -20 -88 -12 -36 -17 -71 -14 -100 4 -39 3 -42 -6 -20 -6 14
-13 41 -14 60 -2 19 -9 36 -15 38 -19 6 -18 1 38 -184 24 -80 72 -154 99 -154
45 0 99 94 127 220 15 73 32 401 18 370 -4 -11 -10 -5 -19 20 l-12 35 -1 -37z"/>
<path d="M6211 544 c0 -11 3 -14 6 -6 3 7 2 16 -1 19 -3 4 -6 -2 -5 -13z"/>
<path d="M6223 465 c0 -22 2 -30 4 -17 2 12 2 30 0 40 -3 9 -5 -1 -4 -23z"/>
<path d="M5332 420 c0 -19 2 -27 5 -17 2 9 2 25 0 35 -3 9 -5 1 -5 -18z"/>
<path d="M6232 380 c0 -14 2 -19 5 -12 2 6 2 18 0 25 -3 6 -5 1 -5 -13z"/>
<path d="M6552 251 c-1 -18 -7 -52 -13 -75 -15 -57 -41 -148 -47 -164 -3 -10
2 -13 19 -10 22 3 25 11 37 83 6 44 11 107 9 140 -2 33 -4 45 -5 26z"/>
</g>
</svg>
